<?xml version="1.0" encoding="UTF-8" standalone="no"?>
<svg
   xmlns:dc="http://purl.org/dc/elements/1.1/"
   xmlns:cc="http://creativecommons.org/ns#"
   xmlns:rdf="http://www.w3.org/1999/02/22-rdf-syntax-ns#"
   xmlns:svg="http://www.w3.org/2000/svg"
   xmlns="http://www.w3.org/2000/svg"
   width="10865.59"
   height="2904.4875"
   viewBox="0 0 2874.854 768.47898"
   version="1.1"
   id="svg6810">
  <defs
     id="defs6804" />
  <metadata
     id="metadata6807">
    <rdf:RDF>
      <cc:Work
         rdf:about="">
        <dc:format>image/svg+xml</dc:format>
        <dc:type
           rdf:resource="http://purl.org/dc/dcmitype/StillImage" />
        <dc:title></dc:title>
      </cc:Work>
    </rdf:RDF>
  </metadata>
  <g
     id="layer1"
     transform="matrix(0.90979534,0,0,0.90979534,3079.1294,213.30883)">
    <path
       style="opacity:1;fill:#000000;fill-opacity:1;stroke:none;stroke-width:11.01357937;stroke-linecap:round;stroke-linejoin:round;stroke-miterlimit:4;stroke-dasharray:none"
       d="m 5974.8438,0 -10.543,0.75195312 -6.7754,393.07421688 h -32.3809 l -113.2461,177.70117 0.1368,42.59961 h -24.9141 v 96.90821 h -51.1152 V 2449.4902 h -63.3047 V 1215.4004 c -159.7074,33 -227.7642,-45.6994 -291.1817,-130.0527 h -290.0312 v 1364.1425 h -61.5645 V 830.05469 h -98.7715 V 735.0625 h 22.6114 v -52.75 H 4600.668 v 52.75 h 22.6113 v 94.99219 h -98.7734 V 2449.4902 h -61.5625 v -703.5175 h -35.0293 v -246.5215 l -8.7579,-3.4864 -105.0917,-144.1914 -3.8907,-106.9824 -6.2422,-0.623 -2.3496,104.1152 h -60.498 l 1.9472,-103.4922 -10.2519,1.4336 -2.6328,100.2149 -50.793,0.4101 -50.793,-0.4101 -2.6328,-100.2149 -10.2519,-1.4336 1.9472,103.4922 h -60.498 l -2.3496,-104.1152 -6.2422,0.623 -3.8926,106.9824 -105.0898,144.1914 -8.7578,3.4864 v 246.5215 h -35.0293 v 703.5175 h -70.9375 v -169.2031 l -13.4864,-23.3594 v -36.4589 l 9.2598,-16.0391 -9.9141,-9.9141 v -25.9765 h -83.1406 v -95.3028 l -11.834,-11.8418 -62.2812,-35.955 v -89.5879 l -16.6367,-9.6055 h -70.9532 l -15.5722,8.9941 v 39.1465 h 36.1269 v 134.3145 h 108.3086 v 13.9121 h -122.2285 v -134.3145 h -115.75 v 36.9473 l 10.9414,6.3125 v 42.3242 h -381.0156 v -80.1836 h -42.0645 v -162.3691 l -7.5996,-28.3399 v -49.2129 l -10.4609,-6.0468 v -158.9532 l -10.3887,-38.7714 v -59.17 -49.2988 -115.0332 l -7.2265,-26.9453 -7.6133,-28.4277 v -18.8946 l -9.0879,-9.0859 -10.0723,10.0723 v 34.1718 h -19.7207 v -23.0078 l -17.4199,0.3321 h -0.037 v -33.6915 h 10.5762 v -8.3613 h -10.5762 v -9.9922 h -8.3692 v 9.9922 h -10.5761 v 8.3613 h 10.5761 v 33.6915 h -36.7168 v -33.6915 h 10.5762 v -8.3613 h -10.5762 v -9.9922 h -8.3691 v 9.9922 h -10.5762 v 8.3613 h 10.5762 v 33.6915 h -36.7168 v -33.6915 h 10.5762 v -8.3613 h -10.5762 v -9.9922 h -8.3496 v 10 h -10.5762 v 8.3535 h 10.5762 v 33.6973 h -0.037 l -17.4219,-0.3301 v 23.0059 h -19.7207 v -34.1777 l -10.0723,-10.0723 -9.0859,9.0859 v 18.9024 l -7.6152,28.4199 -7.2246,26.9531 v 115.0313 49.2988 59.1621 l -10.3887,38.7813 v 158.9531 l -10.4609,6.039 v 49.2188 l -7.5997,28.3418 v 162.3594 h -42.0664 v 80.1855 h -381.0136 v -42.3242 l 10.9414,-6.3125 v -36.9473 h -115.752 v 134.3145 h -122.2207 v -13.9121 H 2205.01 v -134.3145 h 36.1191 v -39.1465 l -15.5723,-8.9941 h -70.9531 l -16.6367,9.6055 v 89.5879 l -62.2832,35.955 -11.834,11.8418 v 95.3028 h -83.1387 v 25.9765 l -9.914,9.9141 9.2597,16.0391 v 36.4589 l -13.4882,23.3594 v 169.2031 h -70.959 v -50.8281 -66.457 h -10.6309 -10.6328 v 8.7734 c -0.015,15.1352 -2.4635,27.698 -7.2949,37.3985 -10.7214,21.5343 -43.1859,53.4472 -61.0567,60.0214 -5.5808,2.0522 -8.3073,2.2595 -29.2421,2.252 -12.6981,-0.01 -24.8223,-0.2985 -26.9434,-0.6484 l -3.8594,-0.6368 -0.6543,-11.3125 c -0.3413,-6.222 -0.953,-33.2034 -1.334,-59.9589 l -0.707,-48.6465 h 19.752 c 11.0131,0 21.0302,0.4855 22.6425,1.0976 8.7179,3.3148 21.5919,24.1234 25.0645,40.5176 l 1.2695,5.9941 4.7422,0.6504 c 2.6105,0.3586 8.5309,0.6504 13.1563,0.6504 h 8.4101 l -0.6152,-35.3554 c -0.353,-19.4453 -0.8365,-37.0293 -1.086,-39.0762 -0.2539,-2.0469 -0.4325,-14.4204 -0.5761,-27.4961 -0.065,-13.0756 -0.366,-24.4398 -0.6797,-25.252 -0.4403,-1.1489 -3.3761,-1.4804 -13.1016,-1.4804 h -12.5312 l -1.086,6.1132 c -3.0928,17.4421 -14.2961,34.6405 -26.9961,41.4317 -4.2005,2.2479 -5.8554,2.4297 -21.8379,2.4297 h -17.2968 v -21.6231 c 0,-11.8936 -0.312,-36.7757 -0.6934,-55.2929 l -0.7051,-33.668 h 32.4727 c 36.9048,0 35.0558,-0.3441 49.5234,9.2402 16.5653,10.9735 37.1147,34.0762 44.5879,50.1309 2.8146,6.0415 3.9976,10.5974 5.2656,20.2031 0.8935,6.8215 1.8117,13.0014 2.0196,13.7324 0.2509,0.8639 2.537,1.3323 6.5312,1.3399 3.3819,0.01 7.9442,0.3083 10.1367,0.6718 l 3.9864,0.6583 v -62.3418 -62.3418 l -72.0391,-0.053 -72.0391,-0.053 11.1661,-4.0215 c 53.0762,-19.4722 87.2334,-57.9243 114.3281,-110.7305 18.8515,-54.8167 1.1969,-104.3939 -32.459,-143.5214 -37.6622,-37.439 -67.5174,-51.3952 -110.0488,-51.4473 -32.3656,-0.038 -59.3098,9.3964 -90.3809,31.6465 -24.2698,17.3805 -43.7061,40.813 -57.4375,69.2441 -8.3036,17.1889 -11.8786,27.0641 -14.2461,39.3418 l -1.8476,9.5703 -14.4336,0.2949 -14.4336,0.295 -0.4688,18.3125 c -0.3371,13.0596 -0.9674,19.8375 -2.2226,23.6289 -0.963,2.924 -8.9065,16.5614 -17.6504,30.3047 -8.7428,13.7433 -18.296,28.8156 -21.2285,33.4941 -8.3414,13.2988 -14.4291,20.3675 -20.5723,23.8906 l -5.584,3.2031 -30.9394,0.01 -30.9414,0.012 -0.6934,-79.4824 c -1.3482,-154.7012 -1.3494,-154.536 1.2422,-159.875 5.506,-11.3466 14.1644,-17.3285 26.8965,-18.5918 l 7.0293,-0.6973 0.6797,-8.6406 c 0.3681,-4.7522 0.666,-10.6746 0.666,-13.1602 v -4.5195 h -86.127 -86.1269 v 12.5722 12.5704 l 7.5898,0.205 c 12.8523,0.3454 22.038,5.9923 27.0859,16.6543 2.374,5.1677 2.5176,6.0911 2.5176,32.9629 0,15.2053 0.5501,65.6095 1.2168,112.0098 l 1.2168,84.3652 -3.0644,4.4219 c -1.9612,2.83 -5.1386,5.4742 -8.8301,7.3457 -5.1836,2.6296 -6.8761,2.9238 -16.7402,2.9238 h -10.9747 v 26.0508 26.0508 l 8.2403,0.023 c 12.8039,0.039 16.0041,1.1298 21.6484,7.3789 2.6971,2.9841 6.1866,7.7831 7.7559,10.6661 3.6011,6.6148 2.6286,3.9275 48.6992,135.0449 5.2407,14.9129 10.8983,30.9425 12.5723,35.6211 5.0025,13.9845 21.608,62.572 27.6152,80.8105 0.3746,1.1375 0.6339,1.8919 0.9941,2.9785 h -182.5293 v -143.7968 c 0,0 -10.9257,-4.0468 -10.9257,-10.9258 V 2275.75 l -3.7774,-14.0977 -29.3008,-29.3027 -4.0761,-15.2148 -27.4493,-7.3536 -7.7519,-7.7539 h -41.3516 l -30.75,-8.2402 v -143.832 h -84.1699 l -278.625,-81.7403 -278.625,81.7403 h -84.16797 v 143.832 l -30.75195,8.2402 h -41.34961 l -7.7539,7.7539 -27.44727,7.3536 -4.07617,15.2148 -29.30274,29.3027 -3.77734,14.0977 v 19.0176 c 0,6.879 -10.92578,10.9258 -10.92578,10.9258 v 143.7968 H 91.427734 v 156.1993 H 12034.322 v -156.1993 h -122.502 v -52.7578 l 2.737,-10.2148 V 2208.25 l -18.75,-18.7461 v -37.4727 l 5.138,-5.1425 -6.15,-10.6563 v -26.5996 -9.6758 l -7.285,-27.1836 -5.949,22.211 -46.899,-25.9024 h -37.791 v -19.3574 l 4.531,-1.2109 v -7.0821 h -34.486 -34.482 v 7.0821 l 4.529,1.2109 v 19.3574 h -37.789 l -46.901,25.9024 -5.951,-22.211 -7.281,27.1836 v 9.6758 26.5996 l -6.154,10.6563 5.142,5.1425 v 37.4727 l -18.75,18.7461 h -278.318 v -44.2617 h -17.596 v 46.9238 h -35.191 v -44.3144 h -24.115 v 43.6621 h -108.184 v -27.3711 l -5.213,-5.2149 5.254,-9.0976 -4.271,-15.9278 -3.68,-13.748 -48.537,-13.0039 9.916,-37.002 -4.987,-18.6152 -8.646,-4.9902 -0.586,-52.2911 6.715,-25.0605 h -25.473 l -25.373,-25.3711 h -86.967 v -9.0312 l -4.785,-17.8633 c 0,0 -1.852,-47.8701 0,-49.7227 1.853,-1.8528 8.881,-8.8808 8.881,-8.8808 v -8.9649 c 0,0 -9.467,-0.6555 -9.467,-5.4629 0,-4.8067 -2.145,-16.7195 0,-18.8652 2.146,-2.1456 2.172,-8.1016 2.172,-8.1016 -1.996,-29.2908 -12.111,-54.5209 -46.539,-67.5957 l -3.119,-11.6367 -8.572,-8.5703 v -31.0723 c 0,0 3.771,-12.11 3.771,-14.084 0,-1.974 -4,-6.9301 -4.994,-8.6503 -0.994,-1.7205 -3.885,-14.4922 -3.885,-14.4922 l -9.166,-2.459 v -14.6055 c 0,0 -1.652,-1.9556 -2.103,-3.6387 -0.456,-1.6831 0,-31.916 0,-31.916 l -0.399,-1.5117 8.463,-4.8887 v -3.1582 l -9.295,-2.4922 v -10.1211 l -2.929,-0.7871 h -1.106 l -2.93,0.7871 v 10.1211 l -9.295,2.4922 v 3.1582 l 8.463,4.8887 -0.406,1.5117 c 0,0 0.455,30.2329 0,31.916 -0.455,1.6831 -2.103,3.6387 -2.103,3.6387 v 14.6055 l -9.166,2.459 c 0,0 -2.891,12.7717 -3.885,14.4922 -0.994,1.7202 -4.994,6.6763 -4.994,8.6503 0,1.974 3.775,14.084 3.775,14.084 v 31.0723 l -8.572,8.5703 -3.117,11.6367 c -34.429,13.0748 -44.546,38.3049 -46.541,67.5957 0,0 0.07,5.956 2.168,8.1016 2.145,2.1457 0,14.0585 0,18.8652 0,4.8074 -9.467,5.4629 -9.467,5.4629 v 8.9649 c 0,0 7.03,7.028 8.883,8.8808 1.852,1.8526 0,49.7227 0,49.7227 l -4.788,17.8633 v 9.0312 h -86.966 l -25.373,25.3711 h -25.471 l 6.713,25.0605 -0.586,52.2911 -8.647,4.9902 -4.988,18.6152 9.914,37.002 -48.535,13.0039 -3.682,13.748 -4.269,15.9278 5.258,9.0976 -5.215,5.2149 v 27.3711 h -108.184 v -43.6621 h -24.115 v 44.3144 h -35.193 v -46.9238 h -17.596 v 44.2617 h -278.318 l -18.75,-18.7461 v -37.4727 l 5.142,-5.1425 -6.154,-10.6563 v -26.5996 -9.6758 l -7.281,-27.1836 -5.954,22.211 -46.898,-25.9024 h -37.791 v -19.3574 l 4.535,-1.2109 v -7.0821 h -34.4862 -34.4863 v 7.0821 l 4.5332,1.2109 v 19.3574 h -37.789 l -46.9004,25.9024 -5.9512,-22.211 -7.2813,27.1836 v 9.6758 26.5996 l -6.1543,10.6563 5.1387,5.1425 v 37.4727 l -18.7461,18.7461 v 178.2676 l 2.7364,10.2148 v 52.7578 h -37.5645 v -21.2246 l -3.0625,-11.4336 v -74.4258 l -4.9805,-8.6347 v -214.3496 -182.8692 -0.6699 l 6.1895,-10.7266 -5.5703,-20.791 v -194.2226 l -10.8653,-18.8203 -5.5312,-1.4805 -3.0996,11.5605 -2.3516,8.7813 v 69.1211 h -4.0195 v -66.125 h -0.8789 l -38.4317,-192.2676 -38.4296,192.2637 h -0.9649 v 66.1289 h -4.0215 v -69.4473 l -2.2676,-8.4551 -3.0996,-11.5605 -5.5273,1.4805 -10.8691,18.8203 v 194.2226 l -5.5684,20.791 6.1914,10.7266 v 0.6699 182.8692 h -211.9902 l 43.3125,56.1015 -5.6036,4.334 -97.0976,-125.7695 -104.3555,125.8691 -5.4551,-4.5136 43.5938,-52.586 h -188.125 l -42.9824,-74.4394 -54.0313,123.4218 -11.873,3.1797 v -29.039 l -5.4512,-9.4473 -14.4512,8.3398 v 72.668 l 8.711,15.086 v 30.8105 154.2246 l -6.0371,-10.4531 -31.5079,-8.4473 -13.0722,-48.7637 v -56.4668 c 0,0 -4.9948,-9.7817 -6.5274,-11.3144 -1.5329,-1.5328 0,-24.5254 0,-24.5254 0,0 -14.0125,-26.7804 -17.4511,-30.2187 -3.4383,-3.4382 0,-42.6934 0,-42.6934 l -18.5508,-18.5508 h -14.8418 v -24.7031 c 0,0 -9.874,-11.2786 -8.8067,-15.2617 1.0674,-3.9832 8.3458,-31.1621 8.3458,-31.1621 l -15.9493,-9.2129 9.0352,-33.711 22.9726,-22.9726 -3.9609,-14.7813 -18.0176,-4.8242 -14.6465,25.3633 c 0,0 2.908,-20.0243 0,-25.0606 -2.9075,-5.0363 -3.8143,-13.2466 -8.3535,-14.4628 -4.5392,-1.2164 -8.3862,-14.5319 -10.6093,-18.3829 -2.2235,-3.8508 -4.6637,-12.1623 -8.2051,-14.207 -3.5414,-2.0447 -11.0782,-11.0762 -11.0782,-11.0762 0,0 -7.4632,-99.4351 -5.6093,-103.1425 1.8538,-3.7076 29.0488,-45.1114 29.0488,-45.1114 0,0 4.9372,-1.8497 9.8809,-6.7929 4.9432,-4.9435 10.5097,-17.3028 10.5097,-17.3028 l -7.414,-1.8574 c 0,0 -13.5978,6.1787 -16.6875,8.6504 -3.0898,2.4717 -24.7168,21.627 -24.7168,21.627 l -7.4121,-10.502 -16.0664,-506.6934 -1.8575,-5.5625 c 0,0 -0.6175,-71.6825 1.2364,-74.1543 1.8538,-2.4717 14.2128,-25.9511 14.2128,-25.9511 l -1.2363,-15.4434 -4.3261,-4.9473 -4.9395,-17.3027 -8.6523,-6.7988 -6.1836,-5.5547 -6.1778,-0.6231 -1.2363,3.0899 -0.6152,-48.1953 3.7031,-15.4512 -11.1172,-8.6504 -0.4922,-0.4316 c 0.7227,-2.3233 1.5333,-4.7947 2.0938,-6.0567 1.2359,-2.7804 -0.6153,-11.1172 -0.6153,-11.1172 0,0 -2.1607,-10.2015 -3.0879,-18.2343 -0.9267,-8.0333 0.6143,-18.8456 1.5411,-20.3907 0.9271,-1.5447 1.8515,-5.5597 1.8515,-9.57612 0,-4.01644 -0.3064,-4.63611 -0.6152,-6.79883 -0.3099,-2.16273 -3.087,-16.67978 -4.0137,-19.76953 -0.9271,-3.08941 -0.9322,-8.96239 -1.8594,-17.61329 -0.9267,-8.65089 -2.1621,-11.12285 -2.1621,-12.97656 0,-1.85406 6.1836,-10.19726 6.1836,-10.19726 0,0 4.3252,-5.86936 5.252,-7.41407 0.9271,-1.5447 2.4684,-5.2473 6.1758,-8.95507 3.7077,-3.70743 2.4759,-6.80142 2.7851,-8.03711 0.3099,-1.23604 0.6147,-7.72626 2.7774,-14.52344 2.1626,-6.79718 0,-6.48398 0,-10.19141 0,-3.70742 -0.3086,-15.14001 -0.3086,-17.30273 0,-2.16273 -0.3028,-10.8125 -0.3028,-10.8125 0,0 -1.8553,-0.61712 -3.4004,-0.92578 v 0 c -1.5447,-0.30797 -0.9258,3.70312 -0.9258,3.70312 0,0 0,3.09242 -0.621,12.36133 -0.618,9.26891 -0.6175,10.19781 -2.1622,19.77539 -1.5446,9.57793 0,11.11945 0,15.75391 0,4.63445 -3.4003,7.10351 -3.4003,7.10351 0,0 -4.9446,5.56467 -12.0508,7.10938 -7.1063,1.5447 -3.7032,-4.01592 -3.7032,-5.25196 v -6.18359 c 0,0 0.9231,-4.63457 1.5411,-6.48828 0.6179,-1.85371 0,-5.86846 0,-8.33984 0,-2.47139 -4.0157,-3.39844 -4.0157,-3.39844 l -5.8652,2.16211 c 0,0 -2.4723,-2.47246 -4.3262,-4.32617 -1.8538,-1.85372 -3.4016,0 -5.873,0 -2.4718,0 -2.1604,4.32555 -1.8516,6.48828 0.3099,2.16307 4.0156,3.71093 4.0156,3.71093 l 2.4727,0.61524 -3.0879,17.61328 c 0,0 2.4668,9.26565 2.4668,12.66406 0,3.39877 -2.4668,1.85156 -2.4668,1.85156 l -3.7109,4.02149 c 0,0 -2.4751,3.08923 -3.711,5.25195 -1.2359,2.16273 -2.7773,3.70313 -2.7773,3.70313 l -8.9629,6.18554 c 0,0 -4.234,-0.24604 -8.3125,-0.0488 l -22.6953,-33.32032 2.1641,10.19141 c 2.1603,2.34059 8.177,11.87841 15.4023,23.75781 -0.045,0 -0.1069,0.0332 -0.1484,0.0332 -4.3253,1.23603 -3.0934,4.94582 -4.9473,7.72656 -1.8535,2.7804 4.3262,4.01367 4.3262,4.01367 0,0 3.7778,-0.49304 7.1718,-1.20898 8.7255,14.55945 17.7811,29.96181 24.9981,42.12502 0.3023,1.3332 0.7663,2.524 1.5078,3.2656 2.7806,2.7807 4.017,8.0361 4.3262,10.5078 0.3099,2.4717 -1.8535,4.943 -1.8535,8.3418 0,3.3984 -1.8542,4.3265 -4.6348,12.3594 -2.7806,8.0329 -3.4004,9.8846 -3.4004,11.4297 0,1.255 2.9698,7.7127 4.2715,10.5097 l -6.2442,5.5547 -11.1191,8.6504 3.7051,15.4512 -0.6153,48.1953 -1.2382,-3.0899 -6.1758,0.6231 -6.1856,5.5547 -8.6504,6.7988 -4.9394,17.3027 -4.3262,4.9473 -1.2363,15.4434 c 0,0 12.359,23.4794 14.2129,25.9511 1.8538,2.4718 1.2363,74.1543 1.2363,74.1543 l -1.8574,5.5625 -16.0664,506.6934 -7.4141,10.502 c 0,0 -21.6251,-19.1553 -24.7148,-21.627 -3.0894,-2.4717 -16.6875,-8.6504 -16.6875,-8.6504 l -7.4141,1.8574 c 0,0 5.5665,12.3593 10.5098,17.3028 4.9432,4.9432 9.8808,6.7929 9.8808,6.7929 0,0 27.195,41.4038 29.0489,45.1114 1.8534,3.7074 -5.6094,103.1425 -5.6094,103.1425 0,0 -7.5367,9.0315 -11.0781,11.0762 -3.5414,2.0447 -5.982,10.3561 -8.2051,14.207 -2.2235,3.851 -6.0721,17.1665 -10.6113,18.3829 -4.5393,1.2162 -5.446,9.4265 -8.3536,14.4628 -2.9075,5.0363 0,25.0606 0,25.0606 l -14.6445,-25.3633 -18.0176,4.8242 -3.9609,14.7813 22.9727,22.9726 9.0351,33.711 -15.9512,9.2129 c 0,0 7.2804,27.179 8.3477,31.1621 1.0673,3.9833 -8.8066,15.2617 -8.8066,15.2617 v 24.7031 h -14.8418 l -18.5508,18.5508 c 0,0 3.4382,39.255 0,42.6934 -3.4383,3.4383 -17.4512,30.2187 -17.4512,30.2187 0,0 1.5326,22.9928 0,24.5254 -1.5326,1.5328 -6.5293,11.3144 -6.5293,11.3144 v 56.4668 l -13.0703,48.7637 -31.5078,8.4473 -19.4512,33.6777 -14.8984,8.6035 h -15.6582 v -56.5664 c 0,0 -17.8169,-16.5967 -19.4864,-19.4883 -1.6694,-2.8916 0,-109.5 0,-109.5 l 2.6758,-9.9882 v -27.1309 l -11.998,-20.7832 h -10.166 l -6.6036,24.6484 v 32.3262 h -172.4921 v -134.5176 l 11.2207,-19.4375 v -17.6797 l -11.9258,-6.8867 v -192.2324 l -11.9746,-20.7383 V 1757.6992 L 8266,1742.4102 c 0,0 -3.0986,-11.5605 -4.7227,-17.6211 -1.6229,-6.0608 7.4278,-27.7207 7.4278,-27.7207 l -7.0547,-12.2168 h -35.3926 l -4.6016,-17.1758 L 8075,1514.5723 l -10.4512,-2.8008 -21.3633,-20.7129 -21.3652,20.7129 -10.4512,2.8008 -146.6562,153.1035 -4.6016,17.1758 h -35.3945 l -7.0527,12.2168 c 0,0 9.051,21.6599 7.4277,27.7207 -1.6244,6.0606 -4.7227,17.6211 -4.7227,17.6211 l -8.8261,15.289 v 113.8164 l -11.9746,20.7383 v 192.2324 l -11.9258,6.8867 v 17.6797 l 11.2207,19.4375 v 134.5176 h -172.4922 v -32.3262 l -6.6035,-24.6484 h -10.166 l -11.9981,20.7832 v 27.1309 l 2.6758,9.9882 c 0,0 1.6694,106.6084 0,109.5 -1.6694,2.8916 -19.4863,19.4883 -19.4863,19.4883 v 56.5664 h -27.1368 V 1063.2969 h -83.3261 v -28.5742 h -8.3223 v -11.8926 h -27.3769 v 11.8926 h -42.8418 v -23.8047 h -29.7696 v -7.1446 h -27.3769 v 7.1446 h -70.2188 v 23.8047 h -17.8574 v -67.84379 h -16.6621 v 67.84379 h -26.1797 v -17.8575 h -65.4687 v 17.8575 h -39.2715 v -14.2872 h -13.1074 v -7.1425 h -20.2325 v 7.1425 h -19.0371 v 14.2872 h -16.6621 v 28.5742 h -21.4297 V 2449.4902 H 6941.834 V 572.60156 l -159.7363,-68.16211 -24.9727,-0.27929 V 341.6543 l -11.8575,11.06445 c 0,0 -21.3227,3.14647 -24.4824,4.33203 -3.1601,1.18556 -13.0469,9.10938 -13.0469,9.10938 l -22.9218,-5.14844 c 0,0 -1.1986,41.50004 -0.793,45.8457 0.4059,4.34876 12.255,9.89114 13.8379,5.14844 1.5825,-4.74233 32.3105,-1.5625 32.3105,-1.5625 l 15.1172,-8.71094 v 102.28906 l -216.084,-2.51562 -128.3574,222.32812 V 2449.4902 H 6334.166 V 711.03516 h -51.1152 v -96.90821 h -24.9121 l 0.1347,-42.59961 -113.2461,-177.70117 h -32.3789 L 6105.8711,0.75195312 6095.3281,0 l -0.7519,391.56641 h -59.4903 -59.4882 z m 2807.6289,942.75391 c 0,0 -1.8506,10.20014 -2.7774,12.67187 -0.9271,2.47174 -2.475,5.24702 -3.7109,7.71875 -1.2356,2.47139 -0.3106,9.58338 -0.3106,11.74609 0,2.16273 0.9276,8.03343 1.2364,9.57813 0.053,0.2699 0.1746,1.35741 0.2578,1.97266 l -18.4981,-27.15625 c 2.3055,-1.42809 11.2675,-2.08506 14.8418,-4.16993 3.7074,-2.16272 8.961,-12.36132 8.961,-12.36132 z M 1793.2598,1891.377 c 6.8165,0.014 13.1705,1.904 18.1992,5.6699 17.4429,13.0635 23.2016,30.5382 16.2129,49.1914 -4.9032,13.0823 -31.5797,44.0235 -78.8555,91.457 -37.5579,37.6801 -52.6444,50.2195 -71.7363,59.6172 h -0.01 c -11.0695,5.4497 -26.239,4.948 -36.1856,-1.1992 -6.0041,-3.7114 -17.5273,-16.8837 -20.7773,-23.7539 -3.7009,-7.8415 -3.9434,-13.7446 -0.916,-22.5586 3.2065,-9.3336 13.7595,-24.1465 29.0957,-40.8379 49.1724,-53.5199 98.6768,-98.2348 123.9902,-111.9941 6.8831,-3.7423 14.1639,-5.6056 20.9805,-5.5918 z m -221.8907,150.0156 2.7032,7.9746 c 8.688,25.6341 23.8434,48.1682 43.9785,65.3926 17.636,15.0893 36.5385,26.3567 54.5683,32.5254 h 0.027 l 8.7461,2.9941 -54.3164,0.051 c -29.8745,0.029 -54.6358,-0.2666 -55.0274,-0.6562 -0.3968,-0.3899 -0.6797,-24.9123 -0.6797,-54.4942 z m -93.0898,109.5215 0.25,4.7851 c 0.144,2.6319 0.533,8.2129 0.8769,12.4043 l 0.627,7.6211 12.8574,0.7656 c 12.4324,0.7421 12.9692,0.8756 16.4532,4.0762 2.2983,2.1099 3.9655,4.8885 4.58,7.6699 0.8871,3.9591 -0.093,7.7848 -10.6054,41.4688 l 0.01,0.01 c -35.5408,113.8752 -34.8452,111.8089 -36.1953,108.3496 -0.6826,-1.7543 -7.2407,-19.9375 -14.5723,-40.4062 -15.0757,-42.076 -24.2851,-67.6484 -32.1484,-89.2734 -2.9673,-8.1634 -5.3965,-16.2021 -5.3965,-17.8633 0,-3.7768 2.1425,-7.9721 5.8321,-11.4219 2.5644,-2.3986 3.8723,-2.6942 13.3925,-3.0234 l 10.5508,-0.3653 v -12.1289 -12.1269 l 6.1133,-0.1426 c 3.3645,-0.076 10.8977,-0.1987 16.748,-0.2637 z m 131.1641,26.1933 c 11.4183,-0.022 20.0677,0.1103 21.0488,0.3555 3.552,0.8904 9.6981,6.719 12.1465,11.5195 2.8165,5.4964 2.721,1.6803 3.0234,128.5586 0.2502,103.6195 0.2081,106.1117 -1.834,110.0528 -1.1512,2.2178 -4.4209,5.7069 -7.2695,7.7539 l -5.1777,3.7226 -13.8594,0.3633 -13.8574,0.3633 0.1425,8.6738 c 0,0.3333 0.01,0.6787 0.012,1.0195 H 1464.623 c 3.8694,-11.5403 18.3017,-54.765 40.1329,-120.248 47.9625,-143.8741 47.2281,-141.9562 56.9804,-148.5586 l 4.711,-3.1895 30.8359,-0.3125 c 4.2397,-0.043 8.3541,-0.067 12.1602,-0.074 z"
       transform="matrix(0.26458333,0,0,0.26458333,-3408.6101,-234.45804)"
       id="rect7711" />
    <path
       style="opacity:1;fill:#ffffff;fill-opacity:1;stroke:none;stroke-width:44.17233276;stroke-linecap:round;stroke-linejoin:round;stroke-miterlimit:4;stroke-dasharray:none"
       d="m 5910.8379,524.84961 v 43.67383 h 248.4941 v -43.67383 z m 613.0391,27.56836 V 2508.6895 h 11.875 V 552.41797 Z m 249.8281,9.66992 V 2508.6914 h 12.0488 V 562.08789 Z m -263.2266,119.80469 -14.0254,6.94336 v 26.35547 l 14.0254,-6.94336 z m 45.0352,0 v 26.35547 h 29.6504 v -26.35547 z m 56.8047,0 v 26.35547 h 29.6504 v -26.35547 z m 56.8066,0 v 26.35547 h 29.6484 v -26.35547 z m 56.8047,0 v 26.35547 h 29.6504 v -26.35547 z m 80.5078,0 v 26.35351 l 16.5488,6.94532 v -26.35547 z m -322.8301,13.30273 -14.0254,6.94531 v 26.35547 l 14.0254,-6.94531 z m 354.5371,0 v 26.35547 l 16.5508,6.94531 V 702.14062 Z M 6456.7363,708.5 l -14.0254,6.94336 v 26.35547 l 14.0254,-6.94336 z m 413.1172,0 v 26.35547 l 16.5508,6.94336 v -26.35547 z m -439.9883,13.30469 -14.0254,6.94336 v 26.35547 l 14.0254,-6.94336 z m 471.6973,0 v 26.35547 l 16.5508,6.94336 v -26.35547 z m -2243.8594,9.9375 v 91.54297 h 11.7422 v -91.54297 z m 45.461,0 v 91.54297 h 11.7402 v -91.54297 z m 45.4511,0 v 91.54297 h 11.7403 v -91.54297 z m 45.461,0 v 91.54297 h 11.7402 v -91.54297 z m 45.4492,0 v 91.54297 h 11.7422 v -91.54297 z m 45.4609,0 v 91.54297 h 11.7422 v -91.54297 z m 877.4785,4.27343 v 27.6875 h 93.7129 v -27.6875 z m 136.3106,0 v 27.6875 h 93.7129 v -27.6875 z m 178.9062,0 v 27.6875 h 93.7129 v -27.6875 z m 136.3106,0 v 27.6875 h 93.7129 v -27.6875 z m 341.5215,19.89649 v 26.35547 h 29.6504 v -26.35547 z m 56.8047,0 v 26.35547 h 29.6504 v -26.35547 z m 56.8066,0 v 26.35547 h 29.6484 v -26.35547 z m 56.8047,0 v 26.35547 h 29.6504 v -26.35547 z m -215.4531,12.83008 -14.0254,6.94336 v 26.35547 l 14.0254,-6.94336 z m 295.9609,0 v 26.35547 l 16.5508,6.94336 v -26.35547 z m -322.8301,13.30273 -14.0254,6.94531 v 26.35547 l 14.0254,-6.94531 z m 354.5371,0 v 26.35547 l 16.5508,6.94531 v -26.35547 z m -381.4082,13.30469 -14.0254,6.94336 v 26.35547 l 14.0254,-6.94336 z m 413.1172,0 v 26.35547 l 16.5508,6.94336 v -26.35547 z m -439.9883,13.30469 -14.0254,6.94336 v 26.35546 l 14.0254,-6.94335 z m 471.6973,0 v 26.35547 l 16.5508,6.94335 v -26.35546 z m -1139.0977,1.58398 v 27.6875 h 93.7129 v -27.6875 z m 136.3106,0 v 27.6875 h 93.7129 v -27.6875 z m 178.9062,0 v 27.6875 h 93.7129 v -27.6875 z m 136.3106,0 v 27.6875 h 93.7129 v -27.6875 z m 341.5215,19.69531 v 26.35547 h 29.6504 v -26.35547 z m 56.8047,0 v 26.35547 h 29.6504 v -26.35547 z m 56.8066,0 v 26.35547 h 29.6484 v -26.35547 z m 56.8047,0 v 26.35547 h 29.6504 v -26.35547 z m -215.4531,25.65625 -14.0254,6.94532 v 26.35546 l 14.0254,-6.94531 z m 295.9609,0 v 26.35547 l 16.5508,6.94531 v -26.35546 z m -322.8301,13.30469 -14.0254,6.94336 v 26.35547 l 14.0254,-6.94336 z m 354.5371,0 V 895.25 l 16.5508,6.94336 v -26.35547 z m -381.4082,13.30469 -14.0254,6.94336 v 26.35547 l 14.0254,-6.94336 z m 413.1172,0 v 26.35547 l 16.5508,6.94336 v -26.35547 z m -1107.3887,2.26367 v 27.68945 h 93.7129 v -27.68945 z m 136.3106,0 v 27.68945 h 93.7129 v -27.68945 z m 178.9062,0 v 27.68945 h 93.7129 v -27.68945 z m 136.3106,0 v 27.68945 h 93.7129 v -27.68945 z m 215.873,11.03906 -14.0254,6.94532 v 26.35546 l 14.0254,-6.94531 z m 471.6973,0 v 26.35547 l 16.5508,6.94531 v -26.35546 z m -346.0488,8.45117 v 26.35547 h 29.6504 v -26.35547 z m 56.8047,0 v 26.35547 h 29.6504 v -26.35547 z m 56.8066,0 v 26.35547 h 29.6484 v -26.35547 z m 56.8047,0 v 26.35547 h 29.6504 V 903.95312 Z M 4560.2715,924.43555 V 2474.1914 h 21.3144 V 924.43555 Z m 82.5215,0 V 2474.1914 h 21.3144 V 924.43555 Z m 82.5058,0 V 2474.1914 h 21.3125 V 924.43555 Z m 82.5215,0 V 2474.1914 h 21.3125 V 924.43555 Z m 82.5039,0 V 2474.1914 h 21.3125 V 924.43555 Z m 82.5215,0 V 2474.1914 h 21.3125 V 924.43555 Z m 1537.6309,18.0039 -14.0254,6.94532 v 26.35546 l 14.0254,-6.94531 z m 295.9609,0 v 26.35547 l 16.5508,6.94531 v -26.35546 z m -322.8301,13.30469 -14.0254,6.94336 v 26.35547 l 14.0254,-6.94336 z m 354.5371,0 v 26.35547 l 16.5508,6.94336 V 962.6875 Z m -1075.6797,2.94531 v 27.6875 h 93.7129 v -27.6875 z m 136.3106,0 v 27.6875 h 93.7129 v -27.6875 z m 178.9062,0 v 27.6875 h 93.7129 v -27.6875 z m 136.3106,0 v 27.6875 h 93.7129 v -27.6875 z m 242.7441,10.35938 -14.0254,6.94336 v 26.35551 l 14.0254,-6.9434 z m 413.1172,0 v 26.35547 l 16.5508,6.9434 v -26.35551 z m -314.3398,8.92383 v 26.35544 h 29.6504 v -26.35544 z m 56.8047,0 v 26.35544 h 29.6504 v -26.35544 z m 56.8066,0 v 26.35544 h 29.6484 v -26.35544 z m 56.8047,0 v 26.35544 h 29.6504 v -26.35544 z m -296.0645,4.3789 -14.0254,6.94532 v 26.35542 l 14.0254,-6.9453 z m 471.6973,0 v 26.35544 l 16.5508,6.9453 v -26.35542 z m -391.0859,46.93754 -14.0254,6.9453 v 26.3554 l 14.0254,-6.9453 z m 295.9609,0 v 26.3554 l 16.5508,6.9453 v -26.3554 z m -1043.9727,3.623 v 27.6875 h 93.7129 v -27.6875 z m 136.3106,0 v 27.6875 h 93.7129 v -27.6875 z m 178.9062,0 v 27.6875 h 93.7129 v -27.6875 z m 136.3106,0 v 27.6875 h 93.7129 v -27.6875 z m 269.6152,9.6817 -14.0254,6.9433 v 26.3555 l 14.0254,-6.9434 z m 354.5371,0 v 26.3554 l 16.5508,6.9434 v -26.3555 z m -282.6308,9.4003 v 26.3555 h 29.6504 v -26.3555 z m 56.8047,0 v 26.3555 h 29.6504 v -26.3555 z m 56.8066,0 v 26.3555 h 29.6484 v -26.3555 z m 56.8047,0 v 26.3555 h 29.6504 v -26.3555 z m -269.1934,3.9024 -14.0254,6.9453 v 26.3555 l 14.0254,-6.9453 z m 413.1172,0 v 26.3555 l 16.5508,6.9453 v -26.3555 z m -439.9883,13.3047 -14.0254,6.9453 v 26.3555 l 14.0254,-6.9454 z m 471.6973,0 v 26.3554 l 16.5508,6.9454 v -26.3555 z m 564.0137,20.2734 v 1404.4922 h 14.2832 V 1089.4746 Z m -1703.1114,17.6621 v 27.6875 h 93.7129 v -27.6875 z m 136.3106,0 v 27.6875 h 93.7129 v -27.6875 z m 178.9062,0 v 27.6875 h 93.7129 v -27.6875 z m 136.3106,0 v 27.6875 h 93.7129 v -27.6875 z m 296.4844,9.002 -14.0254,6.9453 v 26.3555 l 14.0254,-6.9454 z m 295.9609,0 v 26.3554 l 16.5508,6.9434 v -26.3535 z m -250.9238,9.875 v 26.3554 h 29.6504 v -26.3554 z m 56.8047,0 v 26.3554 h 29.6504 v -26.3554 z m 56.8066,0 v 26.3554 h 29.6484 v -26.3554 z m 56.8047,0 v 26.3554 h 29.6504 v -26.3554 z m -242.3223,3.4297 -14.0254,6.9433 v 26.3555 l 14.0254,-6.9434 z m 354.5371,0 v 26.3554 l 16.5508,6.9434 v -26.3555 z m -1455.7031,10.9316 v 1377.1738 h 9.207 V 1140.375 Z m 1487.4121,2.3711 v 26.3555 l 16.5508,6.9453 v -26.3555 z m -413.1172,0 -14.0254,6.9434 v 26.3555 l 14.0254,-6.9434 z m -26.8711,13.3028 -14.0254,6.9453 v 26.3555 l 14.0254,-6.9454 z m 471.6973,0 v 26.3554 l 16.5508,6.9454 v -26.3555 z m 1848.7832,17.0703 v 6.1172 h 79.5215 v -6.1172 z m -1716.2168,2.0508 v 11.9023 h 402.3027 V 1175.17 Z m -1271.6641,6.1875 v 27.6894 h 93.7129 v -27.6894 z m 136.3106,0 v 27.6894 h 93.7129 v -27.6894 z m 178.9062,0 v 27.6894 h 93.7129 v -27.6894 z m 136.3106,0 v 27.6894 h 93.7129 v -27.6894 z m 341.5215,18.6738 v 26.3555 h 29.6504 v -26.3555 z m 56.8047,0 v 26.3555 h 29.6504 v -26.3555 z m 56.8066,0 v 26.3555 h 29.6484 v -26.3555 z m 56.8047,0 v 26.3555 h 29.6504 v -26.3555 z m -215.4531,2.9551 -14.0254,6.9433 v 26.3555 l 14.0254,-6.9433 z m 295.9609,0 v 26.3555 l 16.5508,6.9433 v -26.3555 z m 31.707,13.3027 v 26.3555 l 16.5508,6.9453 v -26.3555 z m -354.5371,0 -14.0254,6.9433 v 26.3555 l 14.0254,-6.9453 z m -26.8711,13.3027 -14.0254,6.9453 v 26.3555 l 14.0254,-6.9453 z m 413.1172,0 v 26.3555 l 16.5508,6.9453 v -26.3555 z m -439.9883,13.3047 -14.0254,6.9434 v 26.3554 l 14.0254,-6.9433 z m 471.6973,0 v 26.3555 l 16.5508,6.9433 v -26.3554 z m -1139.0977,12.6836 v 27.6894 h 93.7129 v -27.6894 z m 136.3106,0 v 27.6894 h 93.7129 v -27.6894 z m 178.9062,0 v 27.6894 h 93.7129 v -27.6894 z m 136.3106,0 v 27.6894 h 93.7129 v -27.6894 z m -1104.9375,8.2676 v 6.7109 h 257.168 v -6.7109 z m 1446.459,10.2031 v 26.3555 h 29.6504 v -26.3555 z m 56.8047,0 v 26.3555 h 29.6504 v -26.3555 z m 56.8066,0 v 26.3555 h 29.6484 v -26.3555 z m 56.8047,0 v 26.3555 h 29.6504 v -26.3555 z m -3869.2637,14.4355 c -6.4186,-0.038 -12.8359,5.8535 -12.8359,17.7871 v 28.0137 h 25.6738 v -28.0137 c 0,-11.7823 -6.4193,-17.7492 -12.8379,-17.7871 z m 39.043,0 c -6.4186,-0.038 -12.8379,5.8535 -12.8379,17.7871 v 28.0137 h 25.6758 v -28.0137 c 0,-11.7823 -6.4193,-17.7492 -12.8379,-17.7871 z m 39.043,0 c -6.4186,-0.038 -12.836,5.8535 -12.836,17.7871 v 28.0137 h 25.6738 v -28.0137 c 0,-11.7823 -6.4193,-17.7492 -12.8378,-17.7871 z m 3575.7246,1.3477 -14.0254,6.9453 v 26.3555 l 14.0254,-6.9453 z m 295.9609,0 v 26.3555 l 16.5508,6.9453 v -26.3555 z m 1951.7715,7.373 v 3.4961 h 63.793 v -3.4961 z m -2274.6016,5.9317 -14.0254,6.9433 v 26.3555 l 14.0254,-6.9434 z m 354.5371,0 v 26.3554 l 16.5508,6.9434 v -26.3555 z m -381.4082,13.3027 -14.0254,6.9453 v 26.3555 l 14.0254,-6.9453 z m 413.1172,0 v 26.3555 l 16.5508,6.9453 v -26.3555 z m -439.9883,13.3047 -14.0254,6.9453 v 26.3555 l 14.0254,-6.9453 z m 471.6973,0 v 26.3555 l 16.5508,6.9453 v -26.3555 z m -1139.0977,0.061 v 27.6875 h 93.7129 v -27.6875 z m 136.3106,0 v 27.6875 h 93.7129 v -27.6875 z m 178.9062,0 v 27.6875 h 93.7129 v -27.6875 z m 136.3106,0 v 27.6875 h 93.7129 v -27.6875 z m 341.5215,18.2657 v 26.3554 h 29.6504 v -26.3554 z m 56.8047,0 v 26.3554 h 29.6504 v -26.3554 z m 56.8066,0 v 26.3554 h 29.6484 v -26.3554 z m 56.8047,0 v 26.3554 h 29.6504 v -26.3554 z m -3940.6094,5.7851 v 9.2969 h 220.7793 v -9.2969 z m 1355.8906,5.2285 -32.3964,140.7032 h 10.0039 l 32.3964,-140.7032 z m 66.2813,0 32.3945,140.7032 h 10.0059 l -32.3965,-140.7032 z m -144.9043,0 -72.5059,140.7012 h 10.0059 l 72.5039,-140.7012 z m 223.5254,0 72.5058,140.7012 h 10.0039 l -72.5039,-140.7012 z m 2748.0156,15.4473 v 11.9023 h 402.3027 v -11.9023 z m -523.6523,2.1484 -14.0254,6.9434 v 26.3554 l 14.0254,-6.9433 z m 295.9609,0 v 26.3555 l 16.5508,6.9433 v -26.3554 z m 1977.1152,8.7852 v 28.8378 h 13.1075 v -28.8378 z m -2299.9453,4.5175 -14.0254,6.9453 v 26.3555 l 14.0254,-6.9453 z m 354.5371,0 v 26.3555 l 16.5508,6.9453 v -26.3555 z m -1729.0898,8.2832 v 6.7129 h 257.168 v -6.7129 z m 1347.6816,5.0215 -14.0254,6.9434 v 26.3555 l 14.0254,-6.9434 z m 413.1172,0 v 26.3555 l 16.5508,6.9434 v -26.3555 z m -1107.3887,0.7383 v 27.6895 h 93.7129 v -27.6895 z m 136.3106,0 v 27.6895 h 93.7129 v -27.6895 z m 178.9062,0 v 27.6895 h 93.7129 v -27.6895 z m 136.3106,0 v 27.6895 h 93.7129 v -27.6895 z m 215.873,12.5664 -14.0254,6.9434 v 26.3554 l 14.0254,-6.9433 z m 471.6973,0 v 26.3555 l 16.5508,6.9433 v -26.3554 z m -346.0488,5.4961 v 26.3555 h 29.6504 v -26.3555 z m 56.8047,0 v 26.3555 h 29.6504 v -26.3555 z m 56.8066,0 v 26.3555 h 29.6484 v -26.3555 z m 56.8047,0 v 26.3555 h 29.6504 v -26.3555 z m -3861.3613,33.2852 c -6.4187,-0.099 -12.8379,15.2777 -12.8379,46.4218 v 73.1094 h 25.6738 v -73.1094 c 0,-30.7493 -6.4173,-46.3231 -12.8359,-46.4218 z m 62.2832,0 c -6.4186,-0.099 -12.8379,15.2777 -12.8379,46.4218 v 73.1094 h 25.6738 v -73.1094 c 0,-30.7493 -6.4174,-46.3231 -12.8359,-46.4218 z m 3583.625,8.1562 -14.0254,6.9434 v 26.3554 l 14.0254,-6.9433 z m 295.9609,0 v 26.3555 l 16.5508,6.9433 v -26.3554 z m 31.707,13.3027 v 26.3555 l 16.5508,6.9453 v -26.3554 z m -354.5371,0 -14.0254,6.9434 v 26.3554 l 14.0254,-6.9433 z m -721.1426,1.416 v 27.6875 h 93.7129 v -27.6875 z m 136.3106,0 v 27.6875 h 93.7129 v -27.6875 z m 178.9062,0 v 27.6875 h 93.7129 v -27.6875 z m 136.3106,0 v 27.6875 h 93.7129 v -27.6875 z m 242.7441,11.8867 -14.0254,6.9453 v 26.3555 l 14.0254,-6.9453 z m 413.1172,0 V 1516.5 l 16.5508,6.9453 v -26.3555 z m -314.3398,5.9707 v 26.3555 h 29.6504 v -26.3555 z m 56.8047,0 v 26.3555 h 29.6504 v -26.3555 z m 56.8066,0 v 26.3555 h 29.6484 v -26.3555 z m 56.8047,0 v 26.3555 h 29.6504 v -26.3555 z m -296.0645,7.334 -14.0254,6.9434 v 26.3554 l 14.0254,-6.9433 z m 471.6973,0 v 26.3555 l 16.5508,6.9433 v -26.3554 z m -2963.5234,4.4414 v 9.2676 h 482.6289 v -9.2676 z m 4845.9492,20.0235 v 28.8379 h 12.2344 v -28.8379 z m -3674.9336,4.7832 v 6.7129 h 257.168 v -6.7129 z m -1121.3555,6.2636 v 27.5079 h 36.9805 v -27.5079 z m 69.2656,0 v 27.5079 h 36.9805 v -27.5079 z m 69.2657,0 v 27.5079 h 36.9804 v -27.5079 z m 69.2656,0 v 27.5079 h 36.9805 v -27.5079 z m 69.2637,0 v 27.5079 h 36.9804 v -27.5079 z m 69.2675,0 v 27.5079 h 36.9805 v -27.5079 z m 2176.4493,11.4258 -14.0254,6.9434 v 26.3554 l 14.0254,-6.9433 z m 295.9609,0 v 26.3555 l 16.5508,6.9433 v -26.3554 z m -1043.9727,2.0938 v 27.6894 h 93.7129 v -27.6894 z m 136.3106,0 v 27.6894 h 93.7129 v -27.6894 z m 178.9062,0 v 27.6894 h 93.7129 v -27.6894 z m 136.3106,0 v 27.6894 h 93.7129 v -27.6894 z m 269.6152,11.209 -14.0254,6.9453 v 26.3554 l 14.0254,-6.9453 z m 354.5371,0 v 26.3554 l 16.5508,6.9453 v -26.3554 z m -282.6308,6.4472 v 26.3555 h 29.6504 v -26.3555 z m 56.8047,0 v 26.3555 h 29.6504 v -26.3555 z m 56.8066,0 v 26.3555 h 29.6484 v -26.3555 z m 56.8047,0 v 26.3555 h 29.6504 v -26.3555 z m 308.1992,3.7695 v 11.9024 h 402.3027 v -11.9024 z m -577.3926,3.0879 -14.0254,6.9434 v 26.3555 l 14.0254,-6.9434 z m 413.1172,0 v 26.3555 l 16.5508,6.9434 v -26.3555 z m -4097.8887,11.7871 v 13.7481 h 247.4903 v -13.7481 z m 3657.9004,1.5176 -14.0254,6.9434 v 26.3555 l 14.0254,-6.9434 z m 471.6973,0 v 26.3555 l 16.5508,6.9434 v -26.3555 z m -2913.8633,4.9121 v 27.5079 h 36.9805 v -27.5079 z m 69.2656,0 v 27.5079 h 36.9805 v -27.5079 z m 69.2657,0 v 27.5079 h 36.9804 v -27.5079 z m 69.2656,0 v 27.5079 h 36.9805 v -27.5079 z m 69.2637,0 v 27.5079 h 36.9804 v -27.5079 z m 69.2675,0 v 27.5079 h 36.9805 v -27.5079 z m 1428.4375,31.4961 v 27.6875 h 93.7129 v -27.6875 z m 136.3106,0 v 27.6875 h 93.7129 v -27.6875 z m 178.9062,0 v 27.6875 h 93.7129 v -27.6875 z m 136.3106,0 v 27.6875 h 93.7129 v -27.6875 z m 296.4844,10.5274 -14.0254,6.9453 v 26.3555 l 14.0254,-6.9454 z m 295.9609,0 v 26.3554 l 16.5508,6.9454 v -26.3555 z m -250.9238,6.9218 v 26.3555 h 29.6504 v -26.3555 z m 56.8047,0 v 26.3555 h 29.6504 v -26.3555 z m 56.8066,0 v 26.3555 h 29.6484 v -26.3555 z m 56.8047,0 v 26.3555 h 29.6504 v -26.3555 z m -242.3223,6.3829 -14.0254,6.9433 v 26.3555 l 14.0254,-6.9434 z m 354.5371,0 v 26.3554 l 16.5508,6.9434 v -26.3555 z m -2850.4453,0.9218 v 27.5079 h 36.9805 v -27.5079 z m 69.2656,0 v 27.5079 h 36.9805 v -27.5079 z m 69.2657,0 v 27.5079 h 36.9804 v -27.5079 z m 69.2656,0 v 27.5079 h 36.9805 v -27.5079 z m 69.2637,0 v 27.5079 h 36.9804 v -27.5079 z m 69.2675,0 v 27.5079 h 36.9805 v -27.5079 z m 2122.709,12.3829 -14.0254,6.9433 v 26.3555 l 14.0254,-6.9434 z m 413.1172,0 v 26.3554 l 16.5508,6.9434 v -26.3555 z m -1760.7988,3.2753 v 6.7129 h 257.168 v -6.7129 z m -2213.3047,7.1954 c -38.939,-0.186 -77.9316,30.0935 -77.9316,86.5996 v 344.7968 a 6.9569692,6.9569692 0 0 0 6.955,6.9571 h 141.8711 a 6.9569692,6.9569692 0 0 0 6.9551,-6.9571 v -344.7968 c 0,-55.8684 -38.9106,-86.4138 -77.8496,-86.5996 z m 3534.1152,2.832 -14.0254,6.9453 v 26.3555 l 14.0254,-6.9453 z m 471.6973,0 v 26.3555 l 16.5508,6.9453 v -26.3555 z m -4005.8965,11.0801 c 31.9983,0.1527 64.0195,23.0555 64.0195,72.6875 v 337.8418 h -127.957 v -337.8418 c 0,-50.3487 31.9397,-72.8403 63.9375,-72.6875 z m 4941.9746,5.4433 v 12.0625 h 411.0879 v -12.0625 z m -2075.1758,7.2598 v 27.6894 h 93.7129 v -27.6894 z m 136.3106,0 v 27.6894 h 93.7129 v -27.6894 z m 178.9062,0 v 27.6894 h 93.7129 v -27.6894 z m 136.3106,0 v 27.6894 h 93.7129 v -27.6894 z m 4667.5138,5.8301 c -4.473,-0.026 -8.945,4.0109 -8.945,12.1894 v 19.1992 h 17.892 v -19.1992 c 0,-8.0749 -4.474,-12.1635 -8.947,-12.1894 z m -6893.8068,0.9511 v 27.5079 h 36.9805 v -27.5079 z m 69.2656,0 v 27.5079 h 36.9805 v -27.5079 z m 69.2657,0 v 27.5079 h 36.9804 v -27.5079 z m 69.2656,0 v 27.5079 h 36.9805 v -27.5079 z m 69.2637,0 v 27.5079 h 36.9804 v -27.5079 z m 69.2675,0 v 27.5079 h 36.9805 v -27.5079 z m -1438.3183,3.1231 c -25.3225,0 -46.0039,20.6815 -46.0039,46.0039 0,25.3224 20.6814,46.0039 46.0039,46.0039 25.3224,0 46.0039,-20.6815 46.0039,-46.0039 0,-25.3224 -20.6815,-46.0039 -46.0039,-46.0039 z m 3659.8047,7.3437 v 26.3555 h 29.6504 v -26.3555 z m 56.8047,0 v 26.3555 h 29.6504 v -26.3555 z m 56.8066,0 v 26.3555 h 29.6484 v -26.3555 z m 56.8047,0 v 26.3555 h 29.6504 v -26.3555 z m -215.4531,5.9082 -14.0254,6.9434 v 26.3555 l 14.0254,-6.9434 z m 295.9609,0 v 26.3536 l 16.5508,6.9453 v -26.3555 z m -3910.7285,0.6602 c 17.8038,0 32.0918,14.2883 32.0918,32.0918 0,17.8035 -14.288,32.0918 -32.0918,32.0918 -17.8035,0 -32.0918,-14.2883 -32.0918,-32.0918 0,-17.8035 14.2883,-32.0918 32.0918,-32.0918 z m 5888.2793,10.2754 v 27.9648 h 12.2344 v -27.9648 z m -2300.3809,2.3672 -14.0254,6.9453 v 26.3555 l 14.0254,-6.9454 z m 354.5371,0 v 26.3554 l 16.5508,6.9454 v -26.3555 z m -381.4082,13.3047 -14.0254,6.9433 v 26.3555 l 14.0254,-6.9434 z m 413.1172,0 v 26.3554 l 16.5508,6.9434 v -26.3555 z m 1039.7422,1.4199 v 7.2734 h -7.9941 v 20.584 h 24.7304 v -20.584 h -7.9941 v -7.2734 z m 51.6875,0 v 7.2734 h -7.9941 v 20.584 h 24.7304 v -20.584 h -7.9941 v -7.2734 z m 51.6895,0 v 7.2734 h -7.9961 v 20.584 h 24.7285 v -20.584 h -7.9922 v -7.2734 z m 51.6835,0 v 7.2734 h -7.9921 v 20.584 h 24.7285 v -20.584 h -7.9922 v -7.2734 z m 51.6915,0 v 7.2734 h -7.9961 v 20.584 h 24.7285 v -20.584 h -7.9922 v -7.2734 z m 51.6835,0 v 7.2734 h -7.9902 v 20.584 h 24.7266 v -20.584 h -7.9903 v -7.2734 z m -1738.166,11.8847 -14.0254,6.9434 v 26.3555 l 14.0254,-6.9434 z m 471.6973,0 v 26.3555 l 16.5508,6.9434 v -26.3555 z m 132.5664,9.2735 v 11.9043 h 402.3027 v -11.9043 z m -1271.6641,1.8828 v 27.6895 h 93.7129 v -27.6895 z m 136.3106,0 v 27.6895 h 93.7129 v -27.6895 z m 178.9062,0 v 27.6895 h 93.7129 v -27.6895 z m 136.3106,0 v 27.6895 h 93.7129 v -27.6895 z m -2295.5586,0.7207 v 20.9316 h 36.9805 v -20.9316 z m 69.2656,0 v 20.9316 h 36.9805 v -20.9316 z m 69.2656,0 v 20.9316 h 36.9805 v -20.9316 z m 69.2657,0 v 20.9316 h 36.9804 v -20.9316 z m 69.2656,0 v 20.9316 h 36.9805 v -20.9316 z m 69.2637,0 v 20.9316 h 36.9804 v -20.9316 z m 69.2656,0 v 20.9316 h 36.9805 v -20.9316 z m 69.2656,0 v 20.9316 h 36.9805 v -20.9316 z m 5337.6895,3.9336 a 27.798715,27.798715 0 0 0 -27.7989,27.7988 27.798715,27.798715 0 0 0 27.7989,27.7988 27.798715,27.798715 0 0 0 27.7988,-27.7988 27.798715,27.798715 0 0 0 -27.7988,-27.7988 z m -3185.4668,12.3887 v 26.3554 h 29.6504 v -26.3554 z m 56.8047,0 v 26.3554 h 29.6504 v -26.3554 z m 56.8066,0 v 26.3554 h 29.6484 v -26.3554 z m 56.8047,0 v 26.3554 h 29.6504 v -26.3554 z m 1175.6719,6.332 v 68.6875 h 24.7304 v -68.6875 z m 51.6875,0 v 68.6875 h 24.7304 v -68.6875 z m 51.6875,0 v 68.6875 h 24.7285 v -68.6875 z m 51.6875,0 v 68.6875 h 24.7285 v -68.6875 z m 51.6875,0 v 68.6875 h 24.7285 v -68.6875 z m 51.6894,0 v 68.6875 h 24.7266 v -68.6875 z m -3050.9863,3.0137 v 6.7129 h 257.168 v -6.7129 z m 1401.4219,9.3906 -14.0254,6.9453 v 26.3555 l 14.0254,-6.9453 z m 295.9609,0 v 26.3555 l 16.5508,6.9453 v -26.3555 z m -322.8301,13.3047 -14.0254,6.9433 v 26.3555 l 14.0254,-6.9433 z m 354.5371,0 v 26.3555 l 16.5508,6.9433 v -26.3555 z m -3981.4785,9.4902 c -6.4186,-0.046 -12.8359,7.1972 -12.8359,21.8711 v 34.4473 h 25.6738 v -34.4473 c 0,-14.4879 -6.4193,-21.8246 -12.8379,-21.8711 z m 39.043,0 c -6.4186,-0.046 -12.8379,7.1972 -12.8379,21.8711 v 34.4473 h 25.6758 v -34.4473 c 0,-14.4879 -6.4193,-21.8246 -12.8379,-21.8711 z m 39.043,0 c -6.4186,-0.046 -12.836,7.1972 -12.836,21.8711 v 34.4473 h 25.6738 v -34.4473 c 0,-14.4879 -6.4193,-21.8246 -12.8378,-21.8711 z m 983.6816,1.2852 v 20.9316 h 36.9805 v -20.9316 z m 69.2656,0 v 20.9316 h 36.9805 v -20.9316 z m 69.2656,0 v 20.9316 h 36.9805 v -20.9316 z m 69.2657,0 v 20.9316 h 36.9804 v -20.9316 z m 69.2656,0 v 20.9316 h 36.9805 v -20.9316 z m 69.2637,0 v 20.9316 h 36.9804 v -20.9316 z m 69.2656,0 v 20.9316 h 36.9805 v -20.9316 z m 69.2656,0 v 20.9316 h 36.9805 v -20.9316 z m 2053.4453,2.5293 -14.0254,6.9433 v 26.3555 l 14.0254,-6.9434 z m 413.1172,0 v 26.3554 l 16.5508,6.9434 v -26.3555 z m 2817.2031,11.2597 v 4.6895 h 107.8457 v -4.6895 z m -3924.5918,0.5762 v 27.6875 h 93.7129 v -27.6875 z m 136.3106,0 v 27.6875 h 93.7129 v -27.6875 z m 178.9062,0 v 27.6875 h 93.7129 v -27.6875 z m 136.3106,0 v 27.6875 h 93.7129 v -27.6875 z m 4603.6468,0.4844 v 7.8222 h 127.736 v -7.8222 z m -4387.7738,0.9824 -14.0254,6.9453 v 26.3555 l 14.0254,-6.9453 z m 471.6973,0 v 26.3555 l 16.5508,6.9453 v -26.3555 z m 2808.5215,12.0234 v 50.9102 h 9.043 v -50.9102 z m 13.1875,0 v 50.9102 h 9.043 v -50.9102 z m 13.1875,0 v 50.9102 h 9.043 v -50.9102 z m 13.1875,0 v 50.9102 h 9.043 v -50.9102 z m 13.1875,0 v 50.9102 h 9.043 v -50.9102 z m -3207.3203,3.3497 v 26.3554 h 29.6504 v -26.3554 z m 56.8047,0 v 26.3554 h 29.6504 v -26.3554 z m 56.8066,0 v 26.3554 h 29.6484 v -26.3554 z m 56.8047,0 v 26.3554 h 29.6504 v -26.3554 z m 4203.5433,9.8261 c -6.238,-0.036 -12.475,5.5932 -12.475,16.9981 v 26.7734 h 24.949 v -26.7734 c 0,-11.2603 -6.237,-16.9619 -12.474,-16.9981 z m -95.932,0.8125 c -6.237,-0.036 -12.475,5.5932 -12.475,16.9981 v 26.7734 h 24.95 v -26.7734 c 0,-11.2603 -6.238,-16.9619 -12.475,-16.9981 z m 47.498,0.8125 c -6.237,-0.036 -12.475,5.5932 -12.475,16.9981 v 26.7734 h 24.95 v -26.7734 c 0,-11.2603 -6.238,-16.9619 -12.475,-16.9981 z m -6962.6054,16.4824 v 20.9297 h 36.9805 v -20.9297 z m 69.2656,0 v 20.9297 h 36.9805 v -20.9297 z m 69.2656,0 v 20.9297 h 36.9805 v -20.9297 z m 69.2657,0 v 20.9297 h 36.9804 v -20.9297 z m 69.2656,0 v 20.9297 h 36.9805 v -20.9297 z m 69.2637,0 v 20.9297 h 36.9804 v -20.9297 z m 69.2656,0 v 20.9297 h 36.9805 v -20.9297 z m 69.2656,0 v 20.9297 h 36.9805 v -20.9297 z m 2107.1856,3.6309 -14.0254,6.9453 v 26.3555 l 14.0254,-6.9453 z m 295.9609,0 v 26.3555 l 16.5508,6.9433 v -26.3535 z m -322.8301,13.3047 -14.0254,6.9433 v 26.3555 l 14.0254,-6.9433 z m 354.5371,0 v 26.3555 l 16.5508,6.9433 v -26.3555 z m -3981.4785,10.0234 c -6.4186,-0.046 -12.8359,7.1972 -12.8359,21.8711 v 34.4473 h 25.6738 v -34.4473 c 0,-14.4879 -6.4193,-21.8246 -12.8379,-21.8711 z m 39.043,0 c -6.4186,-0.046 -12.8379,7.1972 -12.8379,21.8711 v 34.4473 h 25.6758 v -34.4473 c 0,-14.4879 -6.4193,-21.8246 -12.8379,-21.8711 z m 39.043,0 c -6.4186,-0.046 -12.836,7.1972 -12.836,21.8711 v 34.4473 h 25.6738 v -34.4473 c 0,-14.4879 -6.4193,-21.8246 -12.8378,-21.8711 z m 4991.4511,1.2852 v 7.7148 h -10.3926 v 168.6348 h 32.1524 v -168.6348 h -10.3926 v -7.7148 z m 55.6485,0 v 7.7148 h -10.3926 v 168.6348 h 32.1523 v -168.6348 h -10.3925 v -7.7148 z m 55.6484,0 v 7.7148 h -10.3926 v 168.6348 h 32.1524 v -168.6348 h -10.3926 v -7.7148 z m 55.6484,0 v 7.7148 h -10.3906 v 168.6348 h 32.1524 v -168.6348 h -10.3926 v -7.7148 z m 55.6504,0 v 7.7148 h -10.3926 v 168.6348 h 32.1524 v -168.6348 h -10.3926 v -7.7148 z m 1532.0274,0.6015 v 4.7364 h 120.3086 v -4.7364 z m -3918.3614,0.6055 v 27.6875 h 93.7129 v -27.6875 z m 136.3106,0 v 27.6875 h 93.7129 v -27.6875 z m 178.9062,0 v 27.6875 h 93.7129 v -27.6875 z m 136.3106,0 v 27.6875 h 93.7129 v -27.6875 z m 242.7441,0.7871 -14.0254,6.9453 v 26.3555 l 14.0254,-6.9453 z m 413.1172,0 v 26.3555 l 16.5508,6.9453 v -26.3555 z m -1760.7988,11.5762 v 6.7129 h 257.168 v -6.7129 z m 1320.8105,1.7285 -14.0254,6.9453 v 26.3555 l 14.0254,-6.9453 z m 471.6973,0 v 26.3555 l 16.5508,6.9453 v -26.3555 z m -346.0488,2.543 v 26.3555 h 29.6504 v -26.3555 z m 56.8047,0 v 26.3555 h 29.6504 v -26.3555 z m 56.8066,0 v 26.3555 h 29.6484 v -26.3555 z m 56.8047,0 v 26.3555 h 29.6504 v -26.3555 z m -2807.4961,13.0527 v 20.9297 h 36.9805 v -20.9297 z m 69.2656,0 v 20.9297 h 36.9805 v -20.9297 z m 69.2656,0 v 20.9297 h 36.9805 v -20.9297 z m 69.2657,0 v 20.9297 h 36.9804 v -20.9297 z m 69.2656,0 v 20.9297 h 36.9805 v -20.9297 z m 69.2637,0 v 20.9297 h 36.9804 v -20.9297 z m 69.2656,0 v 20.9297 h 36.9805 v -20.9297 z m 69.2656,0 v 20.9297 h 36.9805 v -20.9297 z m 2630.8379,19.3477 v 11.9023 h 402.3027 v -11.9023 z m -523.6523,11.9941 -14.0254,6.9453 v 26.3535 l 14.0254,-6.9433 z m 295.9609,0 v 26.3555 l 16.5508,6.9433 v -26.3554 z m 2931.2266,9.2988 v 36.9454 h 6.6308 v -36.9454 z m -6880.9981,2.4766 c -6.4186,-0.047 -12.8359,7.1972 -12.8359,21.8711 v 34.4473 h 25.6738 v -34.4473 c 0,-14.4879 -6.4193,-21.8246 -12.8379,-21.8711 z m 39.043,0 c -6.4186,-0.047 -12.8379,7.1972 -12.8379,21.8711 v 34.4473 h 25.6758 v -34.4473 c 0,-14.4879 -6.4193,-21.8246 -12.8379,-21.8711 z m 39.043,0 c -6.4186,-0.047 -12.836,7.1972 -12.836,21.8711 v 34.4473 h 25.6738 v -34.4473 c 0,-14.4879 -6.4193,-21.8246 -12.8378,-21.8711 z m 2827.7128,1.4199 v 27.6875 h 93.7129 v -27.6875 z m 136.3106,0 v 27.6875 h 93.7129 v -27.6875 z m 178.9062,0 v 27.6875 h 93.7129 v -27.6875 z m 136.3106,0 v 27.6875 h 93.7129 v -27.6875 z m 269.6152,0.1094 -14.0254,6.9434 v 26.3554 l 14.0254,-6.9433 z m 354.5371,0 v 26.3555 l 16.5508,6.9433 v -26.3554 z m 3841.3325,3.7754 v 11.0801 h 404.06 v -11.0801 z m -4222.7407,9.5273 -14.0254,6.9453 v 26.3555 l 14.0254,-6.9453 z m 413.1172,0 v 26.3555 l 16.5508,6.9453 v -26.3555 z m -2951.4199,1.1875 v 20.9317 h 36.9805 v -20.9317 z m 69.2656,0 v 20.9317 h 36.9805 v -20.9317 z m 69.2656,0 v 20.9317 h 36.9805 v -20.9317 z m 69.2657,0 v 20.9317 h 36.9804 v -20.9317 z m 69.2656,0 v 20.9317 h 36.9805 v -20.9317 z m 69.2637,0 v 20.9317 h 36.9804 v -20.9317 z m 69.2656,0 v 20.9317 h 36.9805 v -20.9317 z m 69.2656,0 v 20.9317 h 36.9805 v -20.9317 z m 2152.2227,1.8301 v 26.3555 h 29.6504 v -26.3555 z m 56.8047,0 v 26.3555 h 29.6504 v -26.3555 z m 56.8066,0 v 26.3555 h 29.6484 v -26.3555 z m 56.8047,0 v 26.3555 h 29.6504 v -26.3555 z m -3977.5625,5.3906 c -6.4186,-0.047 -12.836,7.1972 -12.836,21.8711 v 34.4473 h 25.6739 v -34.4473 c 0,-14.4879 -6.4193,-21.8246 -12.8379,-21.8711 z m 294.6836,0 c -6.4186,-0.047 -12.8379,7.1972 -12.8379,21.8711 v 34.4473 h 25.6758 v -34.4473 c 0,-14.4879 -6.4193,-21.8246 -12.8379,-21.8711 z m 3386.8144,4.8965 -14.0254,6.9453 v 26.3536 l 14.0254,-6.9434 z m 471.6973,0 v 26.3555 l 16.5508,6.9434 v -26.3555 z m 1786.7383,18.0801 v 8.7383 h 203.6113 v -8.7383 z m -3579.2461,27.7637 v 6.7129 h 257.168 v -6.7129 z m -4406.5215,0.1504 c -6.14967,-0.011 -12.29879,0.084 -18.42578,0.2675 v 22.5664 h 36.85352 v -22.5117 c -6.12662,-0.2033 -12.27807,-0.312 -18.42774,-0.3222 z m -30.29101,0.7539 c -12.5178,0.6355 -24.86618,1.6842 -36.85938,3.1406 v 18.9394 h 36.85938 z m 60.58203,0.098 v 21.9824 h 36.86133 v -18.7304 c -11.9932,-1.4913 -24.34354,-2.5763 -36.86133,-3.252 z m 5777.65238,0.092 -14.0254,6.9453 v 26.3555 l 14.0254,-6.9453 z m 295.9609,0 v 26.3555 l 16.5508,6.9433 v -26.3554 z m -2888.0039,0.084 v 20.9316 h 36.9805 v -20.9316 z m 69.2656,0 v 20.9316 h 36.9805 v -20.9316 z m 69.2656,0 v 20.9316 h 36.9805 v -20.9316 z m 69.2657,0 v 20.9316 h 36.9804 v -20.9316 z m 69.2656,0 v 20.9316 h 36.9805 v -20.9316 z m 69.2637,0 v 20.9316 h 36.9804 v -20.9316 z m 69.2656,0 v 20.9316 h 36.9805 v -20.9316 z m 69.2656,0 v 20.9316 h 36.9805 v -20.9316 z m 1359.1738,0.4863 v 27.6875 h 93.7129 v -27.6875 z m 136.3106,0 v 27.6875 h 93.7129 v -27.6875 z m 178.9062,0 v 27.6875 h 93.7129 v -27.6875 z m 136.3106,0 v 27.6875 h 93.7129 v -27.6875 z m -5590.47267,3.9766 c -12.89008,1.9018 -25.27392,4.2852 -36.85742,7.1816 v 10.1621 h 36.85742 z m 158.02539,0.2441 v 17.0996 h 36.85742 v -9.8261 c -11.58387,-2.9191 -23.96734,-5.3362 -36.85742,-7.2735 z m 8956.11918,1.9004 v 36.9453 h 6.6308 v -36.9453 z m 930.7319,4.3516 v 8.4726 h 426.221 v -8.4726 z m -4184.7886,2.2617 -14.0254,6.9434 v 26.3554 l 14.0254,-6.9433 z m 354.5371,0 v 26.3555 l 16.5508,6.9433 v -26.3554 z m -6263.34567,1.6699 c -7.10362,2.0965 -13.83379,4.4033 -20.13086,6.916 h 20.13086 z m 255.4707,0.3575 v 6.5585 h 19.19336 c -6.02608,-2.3717 -12.44199,-4.5556 -19.19336,-6.5585 z m 5725.24417,1.4648 v 26.3555 h 29.6504 v -26.3555 z m 56.8047,0 v 26.3555 h 29.6504 v -26.3555 z m 56.8066,0 v 26.3555 h 29.6484 v -26.3555 z m 56.8047,0 v 26.3555 h 29.6504 v -26.3555 z m 143.9238,9.8105 v 26.3555 l 16.5508,6.9453 v -26.3554 z m -413.1172,0 -14.0254,6.9434 v 26.3554 l 14.0254,-6.9453 z m -5917.62692,2.3594 c -0.40139,0.2112 -0.76993,0.4388 -1.16602,0.6523 v 21.3399 h 36.85547 v -21.9922 z m 47.55273,0 v 21.9922 h 36.85742 v -21.9922 z m 48.7207,0 v 21.9922 h 36.85938 v -21.9922 z m 48.72461,0 v 21.9922 h 36.85352 v -21.9922 z m 48.7168,0 v 21.9922 h 36.86133 v -21.9922 z m 48.7207,0 v 21.9922 h 36.85742 v -21.9922 z m 48.72461,0 v 21.9922 h 36.85352 v -20.9688 c -0.63723,-0.3428 -1.27029,-0.6862 -1.92188,-1.0234 z m 9844.31847,4.8847 v 7.8203 h 413.838 v -7.8203 z m -10148.50792,3.0645 c -6.04649,4.3098 -11.07766,8.9931 -14.95508,14.043 h 14.95508 z m 352.9082,0.3476 v 13.6954 h 14.75195 c -3.84944,-4.9101 -8.81129,-9.4792 -14.75195,-13.6954 z m 1421.88282,0.5059 v 406.2266 h 14.4609 v -406.2266 z m 96.707,0 v 406.2266 h 14.461 v -406.2266 z m 96.709,0 v 406.2266 h 14.4629 v -406.2266 z m 96.709,0 v 406.2266 h 14.4609 v -406.2266 z m 594.9648,0 v 406.2266 h 14.461 v -406.2266 z m 96.709,0 v 406.2266 h 14.461 v -406.2266 z m 96.709,0 v 406.2266 h 14.4609 v -406.2266 z m 96.707,0 v 406.2266 h 14.461 v -406.2266 z m 2953.7793,2.1406 -14.0254,6.9453 v 26.3555 l 14.0254,-6.9453 z m 471.6973,0 v 26.3555 l 16.5508,6.9434 v -26.3555 z m 2987.6484,2.8477 v 7.373 h 225.8091 v -7.373 z m 1758.7831,0 v 7.373 h 225.807 v -7.373 z m -2265.9588,2.5332 v 24.0527 h 13.7949 v -24.0527 z m 30.8125,0 v 24.0527 h 13.7949 v -24.0527 z m -8906.26567,12.7441 c -2.90532,5.6189 -4.45508,11.6393 -4.45508,18.0664 v 3.9258 h 23.95313 v -21.9922 z m 31.36133,0 v 21.9922 h 36.85547 v -21.9922 z m 48.71875,0 v 21.9922 h 36.85742 v -21.9922 z m 48.7207,0 v 21.9922 h 36.85938 v -21.9922 z m 48.72461,0 v 21.9922 h 36.85352 v -21.9922 z m 48.7168,0 v 21.9922 h 36.86133 v -21.9922 z m 48.7207,0 v 21.9922 h 36.85742 v -21.9922 z m 48.72461,0 v 21.9922 h 36.85352 v -21.9922 z m 48.71875,0 v 21.9922 h 23.95313 v -3.9258 c 0,-6.4218 -1.58953,-12.4432 -4.5625,-18.0664 z m 3039.44532,1.1856 v 20.9316 h 36.9805 v -20.9316 z m 69.2656,0 v 20.9316 h 36.9805 v -20.9316 z m 69.2656,0 v 20.9316 h 36.9805 v -20.9316 z m 69.2657,0 v 20.9316 h 36.9804 v -20.9316 z m 69.2656,0 v 20.9316 h 36.9805 v -20.9316 z m 69.2637,0 v 20.9316 h 36.9804 v -20.9316 z m 69.2656,0 v 20.9316 h 36.9805 v -20.9316 z m 69.2656,0 v 20.9316 h 36.9805 v -20.9316 z m 5267.8184,2.1133 v 377.7949 h 5.3594 v -377.7949 z m -1852.9571,1.6367 v 6.4941 h 450.0645 v -6.4941 z m 2076.2442,1.2168 v 17.0508 h 13.3633 v -17.0508 z m 40.414,0 v 17.0508 h 13.3633 v -17.0508 z m 40.4141,0 v 17.0508 h 13.3652 v -17.0508 z m 40.4164,0 v 17.0508 h 13.365 v -17.0508 z m 40.414,0 v 17.0508 h 13.365 v -17.0508 z m 40.416,0 v 17.0508 h 13.363 v -17.0508 z m 1556.709,0 v 17.0508 h 13.363 v -17.0508 z m 40.414,0 v 17.0508 h 13.363 v -17.0508 z m 40.414,0 v 17.0508 h 13.365 v -17.0508 z m 40.416,0 v 17.0508 h 13.363 v -17.0508 z m 40.414,0 v 17.0508 h 13.365 v -17.0508 z m 40.416,0 v 17.0508 h 13.363 v -17.0508 z m -6092.7892,10.6035 v 27.6875 h 93.7129 v -27.6875 z m 136.3106,0 v 27.6875 h 93.7129 v -27.6875 z m 178.9062,0 v 27.6875 h 93.7129 v -27.6875 z m 136.3106,0 v 27.6875 h 93.7129 v -27.6875 z m 3523.6719,0.8945 v 36.9434 h 6.6308 v -36.9434 z M 502.12695,2158.581 v 21.9922 h 23.95313 v -21.9922 z m 35.81641,0 v 21.9922 h 36.85547 v -21.9922 z m 48.71875,0 v 21.9922 h 36.85742 v -21.9922 z m 48.7207,0 v 21.9922 h 36.85938 v -21.9922 z m 48.72461,0 v 21.9922 h 36.85352 v -21.9922 z m 48.7168,0 v 21.9922 h 36.86133 v -21.9922 z m 48.7207,0 v 21.9922 h 36.85742 v -21.9922 z m 48.72461,0 v 21.9922 h 36.85352 v -21.9922 z m 48.71875,0 v 21.9922 h 23.95313 v -21.9922 z m 5676.52542,3.711 v 26.3535 h 29.6504 v -26.3535 z m 56.8047,0 v 26.3535 h 29.6504 v -26.3535 z m 56.8066,0 v 26.3535 h 29.6484 v -26.3535 z m 56.8047,0 v 26.3535 h 29.6504 v -26.3535 z m 4030.7733,1.3633 v 43.0136 h 35.193 v -43.0136 z m 107.207,0 v 43.0136 h 35.194 v -43.0136 z m 107.207,0 v 43.0136 h 35.194 v -43.0136 z m -332.929,1.5507 v 327.1602 h 11.08 V 2165.206 Z m 475.558,0 v 327.1602 h 11.08 V 2165.206 Z m -9118.6151,6.1914 v 9.4083 h 218.25 v -9.4083 z m 1582.9062,0 v 9.4083 h 218.252 v -9.4083 z m 3456.0918,0.5997 v 11.9023 h 402.3027 v -11.9023 z m 2853.7012,2.1445 v 4.6094 h 228.5719 v -4.6094 z m 1758.7809,0 v 4.6094 h 228.573 v -4.6094 z m -9020.0153,3.1797 v 33.9297 h 7.4355 v -33.9297 z m 16.2676,0 v 33.9297 h 7.4375 v -33.9297 z m 16.2676,0 v 33.9297 h 7.4375 v -33.9297 z m 465.7187,0 v 33.9297 h 7.4375 v -33.9297 z m 16.2695,0 v 33.9297 h 7.4356 v -33.9297 z m 16.2676,0 v 33.9297 h 7.4375 v -33.9297 z m -917.6269,0.9297 v 33.9297 h 7.4355 v -33.9297 z m 16.2675,0 v 33.9297 h 7.4375 v -33.9297 z m 16.2696,0 v 33.9297 h 7.4355 v -33.9297 z m 1239.3886,0 v 33.9297 h 7.4375 v -33.9297 z m 16.2676,0 v 33.9297 h 7.4375 v -33.9297 z m 16.2696,0 v 33.9297 h 7.4355 v -33.9297 z m -1207.7539,2.7871 v 33.9316 h 7.4374 v -33.9316 z m 16.2675,0 v 33.9316 h 7.4375 v -33.9316 z m 16.2696,0 v 33.9316 h 7.4355 v -33.9316 z m 1045.9707,0 v 33.9316 h 7.4375 v -33.9316 z m 16.2675,0 v 33.9316 h 7.4375 v -33.9316 z m 16.2696,0 v 33.9316 h 7.4355 v -33.9316 z m -1014.336,0.4648 v 33.9317 h 7.4356 v -33.9317 z m 16.2676,0 v 33.9317 h 7.4375 v -33.9317 z m 16.2676,0 v 33.9317 h 7.4375 v -33.9317 z m 852.5547,0 v 33.9317 h 7.4375 v -33.9317 z m 16.2695,0 v 33.9317 h 7.4356 v -33.9317 z m 16.2676,0 v 33.9317 h 7.4375 v -33.9317 z m 6053.5605,0.014 c -20.454,-0.087 -41.0164,6.5835 -56.75,20.5371 -15.7328,13.9535 -26.2793,35.4353 -26.2793,62.8926 v 249.6777 h 14.1602 v -249.6777 c 0,-23.4428 8.4349,-39.965 21.1699,-51.2598 12.735,-11.2949 30.1253,-17.1153 47.6289,-17.041 17.5037,0.076 34.93,6.0448 47.6856,17.3945 12.7563,11.3496 21.1699,27.8118 21.1699,50.9063 v 249.6777 h 14.1914 v -249.6777 c 0,-27.1605 -10.5541,-48.5439 -26.2656,-62.5235 -15.7116,-13.9793 -36.2577,-20.8193 -56.711,-20.9062 z m -1377.8847,0.2558 v 77.9493 h 33.4062 v -77.9493 z m -5496.5938,4.8438 v 33.9316 h 7.4356 v -33.9316 z m 16.2676,0 v 33.9316 h 7.4355 v -33.9316 z m 16.2676,0 v 33.9316 h 7.4375 v -33.9316 z m 659.1367,0 v 33.9316 h 7.4375 v -33.9316 z m 16.2695,0 v 33.9316 h 7.4356 v -33.9316 z m 16.2676,0 v 33.9316 h 7.4355 v -33.9316 z m -2751.96875,1.0352 v 21.9882 h 23.95313 v -21.9882 z m 35.81641,0 v 21.9882 h 36.85547 v -21.9882 z m 48.71875,0 v 21.9882 h 36.85742 v -21.9882 z m 48.7207,0 v 21.9882 h 36.85938 v -21.9882 z m 48.72461,0 v 21.9882 h 36.85352 v -21.9882 z m 48.7168,0 v 21.9882 h 36.86133 v -21.9882 z m 48.7207,0 v 21.9882 h 36.85742 v -21.9882 z m 48.72461,0 v 21.9882 h 36.85352 v -21.9882 z m 48.71875,0 v 21.9882 h 23.95313 v -21.9882 z m 3039.44532,2.1836 v 20.9316 h 36.9805 v -20.9316 z m 69.2656,0 v 20.9316 h 36.9805 v -20.9316 z m 69.2656,0 v 20.9316 h 36.9805 v -20.9316 z m 69.2657,0 v 20.9316 h 36.9804 v -20.9316 z m 69.2656,0 v 20.9316 h 36.9805 v -20.9316 z m 69.2637,0 v 20.9316 h 36.9804 v -20.9316 z m 69.2656,0 v 20.9316 h 36.9805 v -20.9316 z m 69.2656,0 v 20.9316 h 36.9805 v -20.9316 z m -2193.6289,6.7753 v 318.8516 h 9.2969 v -318.8516 z m 1362.7969,0 v 318.8516 h 9.2969 v -318.8516 z m 1536.5957,8.1934 v 6.7129 h 257.168 v -6.7129 z m 3929.7168,3.0293 v 9.377 h 262.3125 v -9.377 z m 467.8789,0 v 9.377 h 145.7012 v -9.377 z M 502.12695,2216.72 v 21.9903 h 23.95313 V 2216.72 Z m 35.81641,0 v 21.9903 h 36.85547 V 2216.72 Z m 48.71875,0 v 21.9903 h 36.85742 V 2216.72 Z m 48.7207,0 v 21.9903 h 36.85938 V 2216.72 Z m 48.72461,0 v 21.9903 h 36.85352 V 2216.72 Z m 48.7168,0 v 21.9903 h 36.86133 V 2216.72 Z m 48.7207,0 v 21.9903 h 36.85742 V 2216.72 Z m 48.72461,0 v 21.9903 h 36.85352 V 2216.72 Z m 48.71875,0 v 21.9903 h 23.95313 V 2216.72 Z m 4883.47652,3.78 v 27.6875 h 93.7129 V 2220.5 Z m 136.3106,0 v 27.6875 h 93.7129 V 2220.5 Z m 178.9062,0 v 27.6875 h 93.7129 V 2220.5 Z m 136.3106,0 v 27.6875 h 93.7129 V 2220.5 Z m 3930.7908,4.3418 v 273.7344 h 11.983 v -273.7344 z m 1461.465,0 v 273.7344 h 11.982 v -273.7344 z m -2201.9101,4.1367 a 38.36601,38.36601 0 0 0 -38.3652,38.3672 38.36601,38.36601 0 0 0 38.3652,38.3652 38.36601,38.36601 0 0 0 38.3672,-38.3652 38.36601,38.36601 0 0 0 -38.3672,-38.3672 z m -324.2031,0.3555 c -6.6573,-0.033 -13.3145,5.1074 -13.3145,15.5195 v 24.4434 h 26.6289 v -24.4434 c 0,-10.2802 -6.6572,-15.4865 -13.3144,-15.5195 z m 44.5449,0 c -6.6573,-0.033 -13.3145,5.1074 -13.3145,15.5195 v 24.4434 h 26.6289 v -24.4434 c 0,-10.2802 -6.6572,-15.4865 -13.3144,-15.5195 z m 83.3965,0 c -6.6573,-0.033 -13.3145,5.1074 -13.3145,15.5195 v 24.4434 h 26.6289 v -24.4434 c 0,-10.2802 -6.6572,-15.4865 -13.3144,-15.5195 z m 44.5449,0 c -6.6573,-0.033 -13.3145,5.1074 -13.3145,15.5195 v 24.4434 h 26.6289 v -24.4434 c 0,-10.2802 -6.6571,-15.4865 -13.3144,-15.5195 z m 328.3828,0 c -6.6573,-0.033 -13.3144,5.1074 -13.3144,15.5195 v 24.4434 h 26.6289 v -24.4434 c 0,-10.2802 -6.6572,-15.4865 -13.3145,-15.5195 z m 44.5449,0 c -6.6572,-0.033 -13.3144,5.1074 -13.3144,15.5195 v 24.4434 h 26.6289 v -24.4434 c 0,-10.2802 -6.6572,-15.4865 -13.3145,-15.5195 z m 108.7676,2.2363 v 36.9453 h 13.3281 v -36.9453 z m 457.4476,2.0742 v 7.168 h 410.58 v -7.168 z m 968.906,0 v 7.168 h 410.58 v -7.168 z m -1259.8966,1.9551 v 50.832 h 23.4629 v -50.832 z m 89.6114,0 v 50.832 h 23.4612 v -50.832 z m 89.6092,0 v 50.832 h 23.463 v -50.832 z m 1579.563,0 v 50.832 h 23.463 v -50.832 z m 89.611,0 v 50.832 h 23.461 v -50.832 z m 89.609,0 v 50.832 h 23.463 v -50.832 z m -5283.2633,0.7207 v 26.3555 h 29.6504 v -26.3555 z m 56.8047,0 v 26.3555 h 29.6504 v -26.3555 z m 56.8066,0 v 26.3555 h 29.6484 v -26.3555 z m 56.8047,0 v 26.3555 h 29.6504 v -26.3555 z m 4251.7443,5.6602 c -12.506,-0.073 -25.01,11.2164 -25.01,34.082 v 53.6777 h 50.022 v -53.6777 c 0,-22.5758 -12.507,-34.0096 -25.012,-34.082 z m -192.334,1.6289 c -12.506,-0.072 -25.012,11.2164 -25.012,34.082 v 53.6777 h 50.022 v -53.6777 c 0,-22.5758 -12.505,-34.0096 -25.01,-34.082 z m 95.228,1.6308 c -12.505,-0.072 -25.009,11.2145 -25.009,34.0801 v 53.6777 h 50.021 v -53.6777 c 0,-22.5757 -12.506,-34.0076 -25.012,-34.0801 z m -10378.44105,0.5547 v 21.9922 h 23.95313 v -21.9922 z m 35.81641,0 v 21.9922 h 36.85547 v -21.9922 z m 48.71875,0 v 21.9922 h 36.85742 v -21.9922 z m 48.7207,0 v 21.9922 h 36.85938 v -21.9922 z m 48.72461,0 v 21.9922 h 36.85352 v -21.9922 z m 48.7168,0 v 21.9922 h 36.86133 v -21.9922 z m 48.7207,0 v 21.9922 h 36.85742 v -21.9922 z m 48.72461,0 v 21.9922 h 36.85352 v -21.9922 z m 48.71875,0 v 21.9922 h 23.95313 v -21.9922 z m 3039.44532,3.1875 v 20.9297 h 36.9805 v -20.9297 z m 69.2656,0 v 20.9297 h 36.9805 v -20.9297 z m 69.2656,0 v 20.9297 h 36.9805 v -20.9297 z m 69.2657,0 v 20.9297 h 36.9804 v -20.9297 z m 69.2656,0 v 20.9297 h 36.9805 v -20.9297 z m 69.2637,0 v 20.9297 h 36.9804 v -20.9297 z m 69.2656,0 v 20.9297 h 36.9805 v -20.9297 z m 69.2656,0 v 20.9297 h 36.9805 v -20.9297 z m -2399.3262,25.6153 c -5.505,0.049 -11.0117,7.7478 -11.0117,22.9531 v 36.1523 h 22.0215 v -36.1523 c 0,-15.4005 -5.5047,-23.0019 -11.0098,-22.9531 z m 87.1758,0 c -7.2306,0.049 -14.4609,7.7478 -14.4609,22.9531 v 36.1523 h 28.9238 v -36.1523 c 0,-15.4005 -7.2323,-23.0019 -14.4629,-22.9531 z m 87.1797,0 c -5.5051,0.049 -11.0098,7.7478 -11.0098,22.9531 v 36.1523 h 22.0196 v -36.1523 c 0,-15.4005 -5.5047,-23.0019 -11.0098,-22.9531 z m 1434.7793,0 c -5.5051,-0.049 -11.0117,7.5526 -11.0117,22.9531 v 36.1523 h 22.0215 v -36.1523 c 0,-15.2053 -5.5047,-22.9043 -11.0098,-22.9531 z m 87.1777,0 c -7.2306,-0.049 -14.4609,7.5526 -14.4609,22.9531 v 36.1523 h 28.9219 v -36.1523 c 0,-15.2053 -7.2303,-22.9043 -14.461,-22.9531 z m 87.1778,0 c -5.5052,-0.049 -11.0117,7.5526 -11.0117,22.9531 v 36.1523 h 22.0214 v -36.1523 c 0,-15.2053 -5.5046,-22.9043 -11.0097,-22.9531 z m 3828.4004,1.8359 v 11.1348 h 854.6582 v -11.1348 z m 2592.0375,0.2226 v 32.586 h 16.293 v -32.586 z m 60.339,0 v 32.586 h 16.293 v -32.586 z m 60.336,0 v 32.586 h 16.293 v -32.586 z m 60.338,0 v 32.586 h 16.293 v -32.586 z m 60.338,0 v 32.586 h 16.293 v -32.586 z m 60.338,0 v 32.586 h 16.293 v -32.586 z m 60.338,0 v 32.586 h 16.293 v -32.586 z m 606.881,0 v 32.586 h 16.293 v -32.586 z m 60.336,0 v 32.586 h 16.293 v -32.586 z m 60.34,0 v 32.586 h 16.293 v -32.586 z m 60.335,0 v 32.586 h 16.293 v -32.586 z m 60.34,0 v 32.586 h 16.293 v -32.586 z m 60.336,0 v 32.586 h 16.293 v -32.586 z m 60.338,0 v 32.586 h 16.293 v -32.586 z m -9279.0799,6.1583 c -11.9962,0.049 -23.9922,7.7478 -23.9922,22.9531 v 36.1543 h 47.9844 v -36.1543 c 0,-15.4005 -11.996,-23.0019 -23.9922,-22.9531 z m 96.709,0 c -11.9961,0.049 -23.9922,7.7478 -23.9922,22.9531 v 36.1543 h 47.9844 v -36.1543 c 0,-15.4005 -11.9961,-23.0019 -23.9922,-22.9531 z m 96.709,0 c -11.9963,0.049 -23.9922,7.7478 -23.9922,22.9531 v 36.1543 h 47.9843 v -36.1543 c 0,-15.4005 -11.9959,-23.0019 -23.9921,-22.9531 z m 96.7089,0 c -11.9962,0.049 -23.9921,7.7478 -23.9921,22.9531 v 36.1543 h 47.9843 v -36.1543 c 0,-15.4005 -11.9959,-23.0019 -23.9922,-22.9531 z m 96.709,0 c -11.9962,0.049 -23.9922,7.7478 -23.9922,22.9531 v 36.1543 h 47.9844 v -36.1543 c 0,-15.4005 -11.9959,-23.0019 -23.9922,-22.9531 z m 498.2539,0 c -11.9962,-0.049 -23.9921,7.5526 -23.9921,22.9531 v 36.1543 h 47.9863 v -36.1543 c 0,-15.2053 -11.9979,-22.9043 -23.9942,-22.9531 z m 96.709,0 c -11.9962,-0.049 -23.9922,7.5526 -23.9922,22.9531 v 36.1543 h 47.9864 v -36.1543 c 0,-15.2053 -11.998,-22.9043 -23.9942,-22.9531 z m 96.709,0 c -11.9962,-0.049 -23.9922,7.5526 -23.9922,22.9531 v 36.1543 h 47.9844 v -36.1543 c 0,-15.2053 -11.996,-22.9043 -23.9922,-22.9531 z m 96.709,0 c -11.9961,-0.049 -23.9922,7.5526 -23.9922,22.9531 v 36.1543 h 47.9844 v -36.1543 c 0,-15.2053 -11.9961,-22.9043 -23.9922,-22.9531 z m 96.709,0 c -11.9962,-0.049 -23.9922,7.5526 -23.9922,22.9531 v 36.1543 h 47.9844 v -36.1543 c 0,-15.2053 -11.996,-22.9043 -23.9922,-22.9531 z m 6202.6445,2.3437 v 36.9453 h 13.3281 v -36.9453 z m -6838.6074,7.3281 c -26.405,-0.127 -52.8106,19.6716 -52.8106,59.7774 v 94.1484 h 105.6211 v -94.1484 c 0,-39.5975 -26.4055,-59.6503 -52.8105,-59.7774 z m 2866.7558,2.2383 v 27.6875 h 93.7129 v -27.6875 z m 136.3106,0 v 27.6875 h 93.7129 v -27.6875 z m 178.9062,0 v 27.6875 h 93.7129 v -27.6875 z m 136.3106,0 v 27.6875 h 93.7129 v -27.6875 z m 2855.9258,5.5 v 36.8418 h 20.0957 v -36.8418 z m 44.8808,0 v 36.8418 h 20.0957 v -36.8418 z m 83.0606,0 v 36.8418 h 20.0957 v -36.8418 z m 44.8808,0 v 36.8418 h 20.0957 v -36.8418 z m 328.0489,0 v 36.8418 h 20.0957 v -36.8418 z m 44.8808,0 v 36.8418 h 20.0938 v -36.8418 z m -843.041,4.6758 v 63.793 h 34.9551 v -63.793 z m 1128.1445,3.0391 v 50.8339 h 23.4629 v -50.8339 z m 89.6114,0 v 50.8339 h 23.4612 v -50.8339 z m 89.6092,0 v 50.8339 h 23.463 v -50.8339 z m 1579.563,0 v 50.8339 h 23.463 v -50.8339 z m 89.611,0 v 50.8339 h 23.461 v -50.8339 z m 89.609,0 v 50.8339 h 23.463 v -50.8339 z m -7920.3434,0.1816 v 20.9297 h 36.9805 v -20.9297 z m 69.2656,0 v 20.9297 h 36.9805 v -20.9297 z m 69.2656,0 v 20.9297 h 36.9805 v -20.9297 z m 69.2657,0 v 20.9297 h 36.9804 v -20.9297 z m 69.2656,0 v 20.9297 h 36.9805 v -20.9297 z m 69.2637,0 v 20.9297 h 36.9804 v -20.9297 z m 69.2656,0 v 20.9297 h 36.9805 v -20.9297 z m 69.2656,0 v 20.9297 h 36.9805 v -20.9297 z m -4156.92186,1.7168 v 33.1914 h 6.39648 v -33.1914 z m 12.11133,0 v 33.1914 h 6.39648 v -33.1914 z m 12.10937,0 v 33.1914 h 6.39844 v -33.1914 z m 38.75782,0 v 33.1914 h 6.39843 v -33.1914 z m 12.11132,0 v 33.1914 h 6.39844 v -33.1914 z m 12.11133,0 v 33.1914 h 6.39649 v -33.1914 z m 38.75781,0 v 33.1914 h 6.39844 v -33.1914 z m 12.11133,0 v 33.1914 h 6.39649 v -33.1914 z m 12.10938,0 v 33.1914 h 6.39844 v -33.1914 z m 38.75781,0 v 33.1914 h 6.39844 v -33.1914 z m 12.11133,0 v 33.1914 h 6.39844 v -33.1914 z m 12.10937,0 v 33.1914 h 6.39844 v -33.1914 z m 38.75782,0 v 33.1914 h 6.39843 v -33.1914 z m 12.11132,0 v 33.1914 h 6.39844 v -33.1914 z m 12.11133,0 v 33.1914 h 6.39649 v -33.1914 z m 38.75781,0 v 33.1914 h 6.39844 v -33.1914 z m 12.11133,0 v 33.1914 h 6.39649 v -33.1914 z m 12.10938,0 v 33.1914 h 6.39844 v -33.1914 z m 38.75781,0 v 33.1914 h 6.39844 v -33.1914 z m 12.11133,0 v 33.1914 h 6.39844 v -33.1914 z m 12.11133,0 v 33.1914 h 6.39648 v -33.1914 z m 38.75781,0 v 33.1914 h 6.39648 v -33.1914 z m 12.11133,0 v 33.1914 h 6.39648 v -33.1914 z m 12.10937,0 v 33.1914 h 6.39844 v -33.1914 z m 38.75781,0 v 33.1914 h 6.39844 v -33.1914 z m 12.11133,0 v 33.1914 h 6.39649 v -33.1914 z m 12.10938,0 v 33.1914 h 6.39844 v -33.1914 z m 38.75976,0 v 33.1914 h 6.39649 v -33.1914 z m 12.10938,0 v 33.1914 h 6.39844 v -33.1914 z m 12.11133,0 v 33.1914 h 6.39648 v -33.1914 z m 38.75781,0 v 33.1914 h 6.39648 v -33.1914 z m 12.10937,0 v 33.1914 h 6.39844 v -33.1914 z m 12.11133,0 v 33.1914 h 6.39649 v -33.1914 z m 38.75781,0 v 33.1914 h 6.39844 v -33.1914 z m 12.11133,0 v 33.1914 h 6.39844 v -33.1914 z m 12.11133,0 v 33.1914 h 6.39649 v -33.1914 z m 38.75782,0 v 33.1914 h 6.3965 v -33.1914 z m 12.1113,0 v 33.1914 h 6.3965 v -33.1914 z m 12.1094,0 v 33.1914 h 6.3984 v -33.1914 z m 38.7578,0 v 33.1914 h 6.3984 v -33.1914 z m 12.1113,0 v 33.1914 h 6.3985 v -33.1914 z m 12.1114,0 v 33.1914 h 6.3965 v -33.1914 z m 38.7578,0 v 33.1914 h 6.3965 v -33.1914 z m 12.1113,0 v 33.1914 h 6.3965 v -33.1914 z m 12.1094,0 v 33.1914 h 6.3984 v -33.1914 z m 5403.2129,0.5019 v 26.3555 h 29.6504 v -26.3555 z m 56.8047,0 v 26.3555 h 29.6504 v -26.3555 z m 56.8066,0 v 26.3555 h 29.6484 v -26.3555 z m 56.8047,0 v 26.3555 h 29.6504 v -26.3555 z m 3489.4593,19.2168 c -5.051,-0.042 -10.102,6.4695 -10.102,19.6563 v 30.9551 h 20.203 v -30.9551 c 0,-13.0196 -5.051,-19.6145 -10.101,-19.6563 z m 60.554,0 c -5.05,-0.042 -10.101,6.4695 -10.101,19.6563 v 30.9551 h 20.203 v -30.9551 c 0,-13.0196 -5.051,-19.6145 -10.102,-19.6563 z m 60.557,0 c -5.051,-0.042 -10.102,6.4695 -10.102,19.6563 v 30.9551 h 20.204 v -30.9551 c 0,-13.0196 -5.051,-19.6145 -10.102,-19.6563 z m 60.555,0 c -5.051,-0.042 -10.102,6.4695 -10.102,19.6563 v 30.9551 h 20.201 v -30.9551 c 0,-13.0196 -5.049,-19.6145 -10.099,-19.6563 z m 60.554,0 c -5.05,-0.042 -10.101,6.4695 -10.101,19.6563 v 30.9551 h 20.203 v -30.9551 c 0,-13.0196 -5.051,-19.6145 -10.102,-19.6563 z m 60.555,0 c -5.051,-0.042 -10.102,6.4695 -10.102,19.6563 v 30.9551 h 20.204 v -30.9551 c 0,-13.0196 -5.051,-19.6145 -10.102,-19.6563 z m 60.555,0 c -5.051,-0.042 -10.102,6.4695 -10.102,19.6563 v 30.9551 h 20.203 v -30.9551 c 0,-13.0196 -5.05,-19.6145 -10.101,-19.6563 z m 605.576,0 c -5.051,0.042 -10.102,6.6367 -10.102,19.6563 v 30.9551 h 20.203 v -30.9551 c 0,-13.1868 -5.05,-19.698 -10.101,-19.6563 z m 60.555,0 c -5.051,0.042 -10.102,6.6367 -10.102,19.6563 v 30.9551 h 20.203 v -30.9551 c 0,-13.1868 -5.051,-19.698 -10.101,-19.6563 z m 60.554,0 c -5.05,0.042 -10.101,6.6367 -10.101,19.6563 v 30.9551 h 20.203 v -30.9551 c 0,-13.1868 -5.051,-19.698 -10.102,-19.6563 z m 60.555,0 c -5.051,0.042 -10.102,6.6367 -10.102,19.6563 v 30.9551 h 20.204 v -30.9551 c 0,-13.1868 -5.051,-19.698 -10.102,-19.6563 z m 60.555,0 c -5.051,0.042 -10.102,6.6367 -10.102,19.6563 v 30.9551 h 20.203 v -30.9551 c 0,-13.1868 -5.051,-19.698 -10.101,-19.6563 z m 60.556,0 c -5.05,0.042 -10.101,6.6367 -10.101,19.6563 v 30.9551 h 20.203 v -30.9551 c 0,-13.1868 -5.051,-19.698 -10.102,-19.6563 z m 60.555,0 c -5.051,0.042 -10.102,6.6367 -10.102,19.6563 v 30.9551 h 20.204 v -30.9551 c 0,-13.1868 -5.051,-19.698 -10.102,-19.6563 z m -6438.5703,9.6778 v 6.7129 h 257.168 v -6.7129 z m 5558.3633,9.1894 v 9.125 h 428.176 v -9.125 z m -8682.4336,0.836 v 10.5175 h 212.3164 v -10.5175 z m 1609.1328,0 v 10.5175 h 212.3164 v -10.5175 z m 4236.5078,1.6972 -104.8125,60.5157 h -102.9941 v 13.8886 h 106.7109 l 104.8105,-60.5156 h 208.8379 208.8379 l 104.8125,60.5156 h 106.7227 v -13.8886 h -102.9942 l -104.8261,-60.5157 h -212.5528 z m -7279.23242,3.9024 c -9.64195,1.5123 -18.32031,9.2496 -18.32031,23.3496 v 37.2324 h 18.32031 z m 59,0 c -9.6412,1.5122 -18.32031,9.2495 -18.32031,23.3496 v 37.2324 h 18.32031 z m 59,0 c -9.64195,1.5122 -18.32031,9.2495 -18.32031,23.3496 v 37.2324 h 18.32031 z m 59,0 c -9.6412,1.5122 -18.32031,9.2496 -18.32031,23.3496 v 37.2324 h 18.32031 z m 59,0 c -9.64195,1.5122 -18.32031,9.2496 -18.32031,23.3496 v 37.2324 h 18.32031 z m 59,0 c -9.64195,1.5122 -18.32031,9.2496 -18.32031,23.3496 v 37.2324 h 18.32031 z m -228.7168,0.037 v 60.5469 h 18.31836 v -37.2325 c 0,-13.9197 -8.6783,-21.7149 -18.31836,-23.3144 z m 59,0 v 60.5469 h 18.31836 v -37.2325 c 0,-13.9197 -8.6783,-21.7149 -18.31836,-23.3144 z m 59,0 v 60.5469 h 18.32031 v -37.2305 c 0,-13.9198 -8.67949,-21.7169 -18.32031,-23.3164 z m 58.99805,0 v 60.5469 h 18.32031 v -37.2305 c 0,-13.9198 -8.68025,-21.7169 -18.32031,-23.3164 z m 59.00195,0 v 60.5469 h 18.32031 v -37.2305 c 0,-13.9198 -8.67987,-21.7169 -18.32031,-23.3164 z m -295,0 v 60.5469 h 18.32031 v -37.2324 c 0,-13.9198 -8.68025,-21.715 -18.32031,-23.3145 z m -317.5293,7.3614 v 45.7812 h 37.76954 v -45.7812 z m 59.00196,0 v 45.7812 h 37.76758 v -45.7812 z m 58.99804,0 v 45.7812 h 37.76954 v -45.7812 z m 59.00196,0 v 45.7812 h 37.76953 v -45.7812 z m 59,0 v 45.7812 h 37.76953 v -45.7812 z m 413.00195,0 v 45.7812 h 37.76953 v -45.7812 z m 59,0 v 45.7812 h 37.76953 v -45.7812 z m 59.00001,0 v 45.7812 h 37.7695 v -45.7812 z m 59,0 v 45.7812 h 37.7695 v -45.7812 z m 59,0 v 45.7812 h 37.7695 v -45.7812 z m 2792.2832,4.998 v 20.9317 h 36.9805 v -20.9317 z m 69.2656,0 v 20.9317 h 36.9805 v -20.9317 z m 69.2656,0 v 20.9317 h 36.9805 v -20.9317 z m 69.2657,0 v 20.9317 h 36.9804 v -20.9317 z m 69.2656,0 v 20.9317 h 36.9805 v -20.9317 z m 69.2637,0 v 20.9317 h 36.9804 v -20.9317 z m 69.2656,0 v 20.9317 h 36.9805 v -20.9317 z m 69.2656,0 v 20.9317 h 36.9805 v -20.9317 z m 1359.1738,1.6914 v 27.6875 h 93.7129 v -27.6875 z m 136.3106,0 v 27.6875 h 93.7129 v -27.6875 z m 178.9062,0 v 27.6875 h 93.7129 v -27.6875 z m 136.3106,0 v 27.6875 h 93.7129 v -27.6875 z m 820.1367,2.4219 v 11.9043 h 402.3027 v -11.9043 z m 2068.2773,1.0234 c -12.8533,-0.074 -25.705,11.5275 -25.705,35.0293 v 55.17 h 51.4121 v -55.17 c 0,-23.204 -12.8537,-34.9548 -25.7071,-35.0293 z m 127.9415,0 c -12.8534,-0.074 -25.7071,11.5275 -25.7071,35.0293 v 55.17 h 51.4141 v -55.17 c 0,-23.204 -12.8536,-34.9548 -25.707,-35.0293 z m 372.9296,0 c -12.8534,-0.074 -25.707,11.5275 -25.707,35.0293 v 55.17 h 51.4141 v -55.17 c 0,-23.204 -12.8537,-34.9548 -25.7071,-35.0293 z m -7599.3125,2.9375 c -5.505,0.049 -11.0117,7.7498 -11.0117,22.9551 v 36.1524 h 22.0215 v -36.1524 c 0,-15.4005 -5.5047,-23.0039 -11.0098,-22.9551 z m 87.1758,0 c -7.2306,0.049 -14.4609,7.7498 -14.4609,22.9551 v 36.1524 h 28.9238 v -36.1524 c 0,-15.4005 -7.2323,-23.0039 -14.4629,-22.9551 z m 87.1797,0 c -5.5051,0.049 -11.0098,7.7498 -11.0098,22.9551 v 36.1524 h 22.0196 v -36.1524 c 0,-15.4005 -5.5047,-23.0039 -11.0098,-22.9551 z m 1434.7793,0 c -5.5051,-0.049 -11.0117,7.5546 -11.0117,22.9551 v 36.1524 h 22.0215 v -36.1524 c 0,-15.2053 -5.5047,-22.9063 -11.0098,-22.9551 z m 87.1777,0 c -7.2306,-0.049 -14.4609,7.5546 -14.4609,22.9551 v 36.1524 h 28.9219 v -36.1524 c 0,-15.2053 -7.2303,-22.9063 -14.461,-22.9551 z m 87.1778,0 c -5.5052,-0.049 -11.0117,7.5546 -11.0117,22.9551 v 36.1524 h 22.0214 v -36.1524 c 0,-15.2053 -5.5046,-22.9063 -11.0097,-22.9551 z m 2768.0586,9.0293 v 26.3555 h 29.6504 v -26.3555 z m 56.8047,0 v 26.3555 h 29.6504 v -26.3555 z m 56.8066,0 v 26.3555 h 29.6484 v -26.3555 z m 56.8047,0 v 26.3555 h 29.6504 v -26.3555 z m 3138.6738,1.7832 v 5.8653 h 275.0235 v -5.8653 z m 1758.7835,0 v 5.8653 h 275.023 v -5.8653 z m -866.684,1.709 v 71.0371 h 35.193 v -71.0371 z m 107.207,0 v 71.0371 h 35.194 v -71.0371 z m 107.207,0 v 71.0371 h 35.194 v -71.0371 z m -2367.5818,12.1856 v 10.0351 h 373.1425 v -10.0351 z m 1581.7108,5.0058 v 9.1231 h 423.613 v -9.1231 z m 968.906,0 v 9.1231 h 423.616 v -9.1231 z m -1794.7047,3.0781 a 13.735979,13.735979 0 0 0 -13.7364,13.7364 13.735979,13.735979 0 0 0 13.7364,13.7344 13.735979,13.735979 0 0 0 13.7363,-13.7344 13.735979,13.735979 0 0 0 -13.7363,-13.7364 z m 44.8906,0 a 13.735979,13.735979 0 0 0 -13.7363,13.7364 13.735979,13.735979 0 0 0 13.7363,13.7344 13.735979,13.735979 0 0 0 13.7363,-13.7344 13.735979,13.735979 0 0 0 -13.7363,-13.7364 z m 44.8945,0 a 13.735979,13.735979 0 0 0 -13.7363,13.7364 13.735979,13.735979 0 0 0 13.7363,13.7344 13.735979,13.735979 0 0 0 13.7344,-13.7344 13.735979,13.735979 0 0 0 -13.7344,-13.7364 z m -1528.0762,4.2579 v 49.1816 h 25.9844 v -49.1816 z m 72.6915,0 v 49.1816 h 25.9824 v -49.1816 z m 72.6894,0 v 49.1816 h 25.9844 v -49.1816 z m 72.6914,0 v 49.1816 h 25.9844 v -49.1816 z m 1761.5449,2.4394 v 44.3164 h 23.4629 v -44.3164 z m 89.6114,0 v 44.3164 h 23.4612 v -44.3164 z m 89.6092,0 v 44.3164 h 23.463 v -44.3164 z m 1579.563,0 v 44.3164 h 23.463 v -44.3164 z m 89.611,0 v 44.3164 h 23.461 v -44.3164 z m 89.609,0 v 44.3164 h 23.463 v -44.3164 z m -7920.3434,11.5762 v 20.9316 h 36.9805 v -20.9316 z m 69.2656,0 v 20.9316 h 36.9805 v -20.9316 z m 69.2656,0 v 20.9316 h 36.9805 v -20.9316 z m 69.2657,0 v 20.9316 h 36.9804 v -20.9316 z m 69.2656,0 v 20.9316 h 36.9805 v -20.9316 z m 69.2637,0 v 20.9316 h 36.9804 v -20.9316 z m 69.2656,0 v 20.9316 h 36.9805 v -20.9316 z m 69.2656,0 v 20.9316 h 36.9805 v -20.9316 z m 5804.602,11.2344 v 32.5839 h 16.293 v -32.5839 z m 60.339,0 v 32.5839 h 16.293 v -32.5839 z m 60.336,0 v 32.5839 h 16.293 v -32.5839 z m 60.338,0 v 32.5839 h 16.293 v -32.5839 z m 60.338,0 v 32.5839 h 16.293 v -32.5839 z m 60.338,0 v 32.5839 h 16.293 v -32.5839 z m 60.338,0 v 32.5839 h 16.293 v -32.5839 z m 606.881,0 v 32.5839 h 16.293 v -32.5839 z m 60.336,0 v 32.5839 h 16.293 v -32.5839 z m 60.34,0 v 32.5839 h 16.293 v -32.5839 z m 60.335,0 v 32.5839 h 16.293 v -32.5839 z m 60.34,0 v 32.5839 h 16.293 v -32.5839 z m 60.336,0 v 32.5839 h 16.293 v -32.5839 z m 60.338,0 v 32.5839 h 16.293 v -32.5839 z m -5776.3612,5.5429 v 27.6875 h 93.7129 v -27.6875 z m 136.3106,0 v 27.6875 h 93.7129 v -27.6875 z m 178.9062,0 v 27.6875 h 93.7129 v -27.6875 z m 136.3106,0 v 27.6875 h 93.7129 v -27.6875 z m -4223.4199,6.8203 v 7.8887 h 201.1406 v -7.8887 z m 1609.1328,0 v 7.8887 h 201.1426 v -7.8887 z m -860.168,1.2598 v 8.3672 h 312.3457 v -8.3672 z m 3815.9766,7.127 v 26.3554 h 29.6504 v -26.3554 z m 56.8047,0 v 26.3554 h 29.6504 v -26.3554 z m 56.8066,0 v 26.3554 h 29.6484 v -26.3554 z m 56.8047,0 v 26.3554 h 29.6504 v -26.3554 z m -4007.3086,12.8593 v 8.3672 h 354.1777 v -8.3672 z m -714.6563,2.1973 c -5.505,0.035 -11.0117,5.5963 -11.0117,16.5742 v 26.1016 h 22.0215 v -26.1016 c 0,-11.1188 -5.5047,-16.6094 -11.0098,-16.5742 z m 87.1758,0 c -7.2306,0.035 -14.4609,5.5963 -14.4609,16.5742 v 26.1016 h 28.9238 v -26.1016 c 0,-11.1188 -7.2323,-16.6094 -14.4629,-16.5742 z m 87.1797,0 c -5.5051,0.035 -11.0098,5.5963 -11.0098,16.5742 v 26.1016 h 22.0196 v -26.1016 c 0,-11.1188 -5.5047,-16.6094 -11.0098,-16.5742 z m 1434.7793,0 c -5.5051,-0.035 -11.0117,5.4554 -11.0117,16.5742 v 26.1016 h 22.0215 v -26.1016 c 0,-10.9779 -5.5047,-16.539 -11.0098,-16.5742 z m 87.1777,0 c -7.2306,-0.035 -14.4609,5.4554 -14.4609,16.5742 v 26.1016 h 28.9219 v -26.1016 c 0,-10.9779 -7.2303,-16.539 -14.461,-16.5742 z m 87.1778,0 c -5.5052,-0.035 -11.0117,5.4554 -11.0117,16.5742 v 26.1016 h 22.0214 v -26.1016 c 0,-10.9779 -5.5046,-16.539 -11.0097,-16.5742 z m 1321.5996,0.2207 v 6.7129 h 257.168 v -6.7129 z m -1190.6211,11.877 v 20.9316 h 36.9805 v -20.9316 z m 69.2656,0 v 20.9316 h 36.9805 v -20.9316 z m 69.2656,0 v 20.9316 h 36.9805 v -20.9316 z m 69.2657,0 v 20.9316 h 36.9804 v -20.9316 z m 69.2656,0 v 20.9316 h 36.9805 v -20.9316 z m 69.2637,0 v 20.9316 h 36.9804 v -20.9316 z m 69.2656,0 v 20.9316 h 36.9805 v -20.9316 z m 69.2656,0 v 20.9316 h 36.9805 v -20.9316 z m -1696.7558,5.6914 v 8.3672 h 378.3476 v -8.3672 z m -20.9161,19.9863 v 8.3672 h 420.1797 v -8.3672 z"
       transform="matrix(0.26458333,0,0,0.26458333,-3408.6101,-234.45804)"
       id="rect7000" />
  </g>
  <path
     id="path13842"
     d="m 1667.9283,767.60387 c -12.6632,-2.75016 -23.9095,-13.64779 -27.2037,-26.36045 -1.1645,-4.49387 -1.1679,-13.29318 0,-18.23233 2.3494,-9.9989 10.1543,-19.90307 19.0249,-24.14218 10.7452,-5.1349 23.6252,-5.09125 34.2936,0.11636 8.7353,4.26397 16.7345,14.19628 18.9281,23.50292 1.1352,4.81525 1.1416,13.89081 0.022,18.33012 -2.5011,9.83949 -10.1697,19.46974 -18.9417,23.78687 -7.533,3.70734 -17.5476,4.85768 -26.107,2.99876 z m 15.5576,-7.00741 c 10.3856,-2.44801 19.2599,-11.19095 21.5787,-21.25916 0.7713,-3.34971 0.7797,-11.77521 0.022,-15.09319 -1.0948,-4.74832 -3.6002,-8.97515 -7.824,-13.19885 -11.861,-11.86131 -28.7469,-11.97951 -40.6004,-0.28419 -6.074,5.99308 -8.6821,12.29549 -8.6821,20.97953 0,9.00896 2.1343,14.36031 8.295,20.79624 7.2395,7.56335 17.0278,10.46173 27.2184,8.05962 z m 199.0404,6.79301 c -3.5643,-1.32761 -5.4775,-2.62461 -8.4087,-5.70059 -2.2679,-2.37999 -5.7417,-7.59457 -5.7408,-8.61763 5e-4,-0.33808 1.3613,-1.37885 3.024,-2.31283 l 3.0234,-1.69812 0.9119,1.38471 c 3.8991,5.92148 5.9308,8.07883 9.0409,9.60052 2.7304,1.33587 3.7335,1.53994 6.0278,1.22639 3.4438,-0.47062 7.5961,-2.98804 9.0583,-5.49162 4.3856,-7.50936 1.1651,-13.79487 -12.4283,-24.25558 -3.3672,-2.59128 -7.3143,-5.89489 -8.7713,-7.34136 -8.7554,-8.69354 -7.2393,-21.82081 3.1517,-27.28299 2.6092,-1.37161 3.6727,-1.57509 8.2433,-1.5772 4.1596,-0.002 5.8181,0.26049 7.9984,1.26531 2.782,1.28228 7.8172,5.58276 9.805,8.37427 l 1.0829,1.52091 -2.8683,2.14139 c -2.817,2.10303 -4.0647,2.61301 -4.0647,1.6613 0,-0.26403 -1.4127,-1.92687 -3.1391,-3.69522 -4.7038,-4.81771 -9.3356,-5.74261 -14.0785,-2.81125 -4.1663,2.57486 -4.9437,8.88819 -1.6685,13.54694 0.9269,1.31828 4.9651,4.89599 8.9737,7.95052 13.2672,10.10936 17.3818,15.47712 17.929,23.38921 0.5071,7.33374 -4.0614,14.67228 -11.2236,18.02919 -4.1364,1.93877 -11.6541,2.26719 -15.8785,0.69373 z M 965.18731,731.75728 v -34.98473 h 3.78998 3.79008 v 34.98473 34.9847 h -3.79008 -3.78998 z m 49.56159,0 v -34.98473 l 1.3119,0.0364 c 0.9845,0.0273 6.9888,6.57147 24.052,26.21505 l 22.7402,26.17869 0.1516,-26.21505 0.1516,-26.21505 h 3.7841 3.7841 v 34.98473 34.9847 l -1.312,-0.0401 c -0.9798,-0.0299 -6.9945,-6.54269 -23.7604,-25.7277 l -22.4487,-25.68763 -0.1517,25.7277 -0.1519,25.72767 h -4.0755 -4.0754 z m 99.1234,-0.0154 v -35.11876 l 14.7229,0.32907 c 16.5271,0.36941 20.8304,1.00676 27.0349,4.00419 5.518,2.6656 11.0383,8.21956 13.8512,13.9352 5.294,10.75707 5.158,25.25966 -0.3349,35.70783 -2.3395,4.45045 -7.9734,10.24875 -11.8829,12.2298 -6.1355,3.10918 -8.6009,3.45677 -26.6277,3.75453 l -16.7635,0.2769 z m 28.2652,27.35861 c 2.8786,-0.35303 6.5408,-1.15709 8.1386,-1.78681 9.4836,-3.73816 14.9445,-12.46718 15.0759,-24.09817 0.071,-6.25071 -0.8408,-10.45114 -3.2715,-15.08088 -5.2628,-10.02338 -12.8791,-13.52455 -30.8615,-14.18686 l -9.7666,-0.35972 v 28.07879 28.07879 l 7.7256,-0.002 c 4.2494,-9e-4 10.081,-0.29044 12.9595,-0.64346 z m 69.692,-27.34264 v -34.98472 h 3.79 3.7901 v 34.98472 34.98471 h -3.7901 -3.79 z m 50.0583,21.74371 c 3.4499,-7.30899 10.85,-23.06645 16.4447,-35.01659 9.5207,-20.33616 10.2629,-21.71768 11.5933,-21.5739 1.2588,0.13596 2.3336,2.1214 9.3955,17.35442 4.3857,9.46045 11.6601,25.13796 16.165,34.83895 l 8.191,17.63812 h -4.2227 -4.2224 l -5.288,-11.22425 -5.288,-11.22426 -14.8016,-0.15538 -14.8014,-0.15536 -5.2751,11.23386 -5.2751,11.23386 -4.444,0.1699 -4.4438,0.1697 z m 38.8966,-17.5164 c -1.0843,-2.90364 -10.5809,-22.86844 -10.8817,-22.87646 -0.194,-0.005 -1.2258,1.89292 -2.2948,4.21796 -1.0692,2.325 -3.5899,7.70392 -5.6015,11.95311 l -3.6576,7.7258 h 11.4081 c 10.6218,0 11.3823,-0.0704 11.0275,-1.02041 z m 59.7303,-4.22731 v -34.98472 l 1.3119,0.0364 c 0.9845,0.0273 6.9886,6.57145 24.0519,26.21505 l 22.7402,26.17868 0.152,-26.21505 0.152,-26.21505 h 3.7842 3.7841 v 34.98472 34.98471 l -1.3119,-0.0401 c -0.9801,-0.0299 -6.9948,-6.54268 -23.7605,-25.72768 l -22.4487,-25.68763 -0.1521,25.72768 -0.1521,25.72768 h -4.0753 -4.0755 z m 99.0369,21.74371 c 3.4497,-7.30899 10.8499,-23.06645 16.4445,-35.01659 9.5207,-20.33616 10.2631,-21.71768 11.5935,-21.5739 1.2586,0.13596 2.3336,2.1214 9.3955,17.35442 4.3856,9.46045 11.6599,25.13796 16.1651,34.83895 l 8.1907,17.63812 h -4.2225 -4.2226 l -5.2879,-11.22425 -5.2881,-11.22426 -14.8014,-0.15538 -14.8015,-0.15536 -5.2752,11.23386 -5.2752,11.23386 -4.4438,0.1699 -4.4439,0.1697 z m 38.8964,-17.5164 c -1.0843,-2.90364 -10.5809,-22.86844 -10.8816,-22.87646 -0.1939,-0.005 -1.2257,1.89292 -2.2949,4.21796 -1.0691,2.325 -3.5898,7.70392 -5.6015,11.95311 l -3.6576,7.7258 h 11.4084 c 10.6215,0 11.3821,-0.0704 11.0272,-1.02041 z m 59.7303,-4.29728 v -35.05469 l 14.7229,0.2717 c 16.8394,0.31077 19.3755,0.86771 24.1995,5.31422 4.2718,3.93759 5.1001,6.08355 5.1001,13.21253 0,7.21778 -0.8891,9.45239 -5.3087,13.34276 -4.2869,3.77329 -8.315,4.77362 -20.784,5.16124 l -10.3497,0.32174 v 16.2426 16.24258 h -3.7901 -3.79 z m 29.9976,-6.0934 c 1.2656,-0.66397 3.1022,-2.19703 4.0813,-3.40684 1.6457,-2.03303 1.7805,-2.54468 1.7805,-6.756 0,-4.21134 -0.1345,-4.72298 -1.7805,-6.75601 -3.2705,-4.04106 -5.0595,-4.5651 -16.4406,-4.81606 l -10.0582,-0.22177 v 11.7854 11.78541 l 10.0582,-0.20341 c 8.799,-0.17806 10.3462,-0.35458 12.3593,-1.41065 z m 165.9169,6.16337 v -34.98472 h 3.79 3.7901 v 31.48625 31.48625 h 13.4108 13.4107 v 3.49846 3.49847 h -17.2008 -17.2008 z m 71.1357,0 v -34.98472 h 3.79 3.79 v 34.98472 34.98471 h -3.79 -3.79 z"
     style="fill:#000000;stroke-width:0.58307874" />
</svg>
